<?xml version="1.0" encoding="utf-8" ?>
<svg baseProfile="full" height="896" version="1.1" viewBox="0 0 1500 896" width="1500" xmlns="http://www.w3.org/2000/svg" xmlns:ev="http://www.w3.org/2001/xml-events" xmlns:xlink="http://www.w3.org/1999/xlink"><defs /><path d="M 0 673 L 0 686 L 11 711 L 28 741 L 55 777 L 75 797 L 90 809 L 105 819 L 129 831 L 159 840 L 172 842 L 209 842 L 245 835 L 266 828 L 285 820 L 317 803 L 343 786 L 386 754 L 413 732 L 459 699 L 461 703 L 467 727 L 477 750 L 489 768 L 502 781 L 515 790 L 529 796 L 544 799 L 563 798 L 574 795 L 589 788 L 604 777 L 620 758 L 629 741 L 636 720 L 641 687 L 641 660 L 636 635 L 630 622 L 622 611 L 610 600 L 591 589 L 580 585 L 566 582 L 542 581 L 521 584 L 491 592 L 492 582 L 495 573 L 503 559 L 516 545 L 537 531 L 553 524 L 574 518 L 601 514 L 643 514 L 665 516 L 672 518 L 670 600 L 665 666 L 665 698 L 667 716 L 671 734 L 681 758 L 689 769 L 697 777 L 709 785 L 729 792 L 757 794 L 779 791 L 801 784 L 817 776 L 832 766 L 846 753 L 854 743 L 879 718 L 888 713 L 894 714 L 896 718 L 897 730 L 902 748 L 908 760 L 918 773 L 927 781 L 941 789 L 954 793 L 967 795 L 983 795 L 996 793 L 1006 790 L 1021 783 L 1039 770 L 1052 757 L 1064 742 L 1080 763 L 1088 771 L 1099 779 L 1107 783 L 1122 787 L 1132 787 L 1142 785 L 1156 779 L 1171 768 L 1189 747 L 1198 730 L 1201 730 L 1204 737 L 1214 751 L 1229 766 L 1243 776 L 1256 783 L 1273 789 L 1301 793 L 1299 803 L 1300 808 L 1299 812 L 1300 830 L 1298 835 L 1299 853 L 1297 861 L 1298 884 L 1296 895 L 1326 895 L 1333 792 L 1335 790 L 1348 789 L 1361 786 L 1379 780 L 1399 771 L 1408 766 L 1432 749 L 1459 722 L 1478 694 L 1489 671 L 1494 656 L 1499 630 L 1499 591 L 1495 567 L 1488 543 L 1473 510 L 1464 496 L 1445 476 L 1438 471 L 1423 464 L 1407 462 L 1399 463 L 1387 467 L 1378 472 L 1369 479 L 1354 496 L 1339 522 L 1326 557 L 1319 584 L 1312 622 L 1307 661 L 1307 671 L 1305 678 L 1285 673 L 1273 667 L 1257 653 L 1250 644 L 1241 627 L 1236 613 L 1233 601 L 1232 591 L 1228 587 L 1222 587 L 1219 590 L 1212 612 L 1202 632 L 1192 647 L 1177 662 L 1171 666 L 1156 671 L 1150 672 L 1134 671 L 1126 668 L 1114 658 L 1108 649 L 1103 636 L 1100 621 L 1100 604 L 1095 600 L 1091 600 L 1088 602 L 1080 618 L 1063 642 L 1045 661 L 1035 669 L 1021 677 L 1007 681 L 983 682 L 975 680 L 965 675 L 960 671 L 949 657 L 944 646 L 940 632 L 937 609 L 937 596 L 935 594 L 932 594 L 919 598 L 898 609 L 883 620 L 838 659 L 823 669 L 809 676 L 797 680 L 781 683 L 764 682 L 752 677 L 743 667 L 739 657 L 737 647 L 736 628 L 736 592 L 740 510 L 746 326 L 747 255 L 749 236 L 754 224 L 762 214 L 774 205 L 775 201 L 759 164 L 751 140 L 726 78 L 724 79 L 666 155 L 663 162 L 662 172 L 665 197 L 668 243 L 671 349 L 671 427 L 669 451 L 613 452 L 574 458 L 562 461 L 534 471 L 518 479 L 501 490 L 492 497 L 475 514 L 464 529 L 455 546 L 446 573 L 442 597 L 441 622 L 438 625 L 394 653 L 349 684 L 309 709 L 275 727 L 234 743 L 211 749 L 184 753 L 154 753 L 125 748 L 99 739 L 72 725 L 45 705 L 24 684 L 26 682 L 37 680 L 54 680 L 72 683 L 96 690 L 137 706 L 159 712 L 178 715 L 196 715 L 208 713 L 220 709 L 236 699 L 248 684 L 253 668 L 253 657 L 251 647 L 248 639 L 240 625 L 231 614 L 224 610 L 224 614 L 217 631 L 210 641 L 198 652 L 185 659 L 173 662 L 157 662 L 153 660 L 167 647 L 173 637 L 177 624 L 177 605 L 175 598 L 169 587 L 159 577 L 153 573 L 140 568 L 122 568 L 110 573 L 98 584 L 91 597 L 89 612 L 90 613 L 90 619 L 93 623 L 105 618 L 114 618 L 122 624 L 123 626 L 122 632 L 116 639 L 107 644 L 98 646 L 52 645 L 32 649 L 21 653 L 12 658 L 4 665 Z M 518 681 L 524 677 L 533 674 L 560 673 L 571 675 L 583 679 L 593 684 L 599 689 L 596 691 L 582 693 L 558 694 L 535 690 L 523 685 Z M 1426 583 L 1438 596 L 1448 613 L 1450 619 L 1450 629 L 1449 631 L 1438 641 L 1415 655 L 1401 662 L 1366 675 L 1353 678 L 1348 677 L 1351 661 L 1363 622 L 1374 598 L 1383 585 L 1389 579 L 1395 575 L 1401 573 L 1411 574 Z" fill="#1C4584" fill-rule="evenodd" stroke="none" /><path d="M 921 880 L 921 895 L 938 895 L 938 880 Z M 1124 832 L 1124 895 L 1138 895 L 1138 851 L 1141 848 L 1149 844 L 1154 843 L 1162 843 L 1173 849 L 1173 895 L 1187 895 L 1187 850 L 1195 845 L 1202 843 L 1214 844 L 1221 849 L 1221 895 L 1235 895 L 1235 839 L 1228 834 L 1216 830 L 1205 830 L 1197 832 L 1187 838 L 1185 838 L 1172 831 L 1158 830 L 1145 834 L 1138 839 L 1136 832 Z M 788 832 L 788 895 L 802 895 L 803 849 L 810 845 L 817 843 L 826 843 L 833 846 L 836 849 L 836 895 L 850 895 L 850 851 L 853 848 L 866 843 L 874 843 L 880 845 L 885 849 L 885 895 L 899 895 L 899 840 L 893 835 L 884 831 L 869 830 L 861 832 L 850 838 L 848 838 L 845 835 L 836 831 L 821 830 L 811 833 L 802 839 L 800 836 L 800 832 Z M 1039 836 L 1037 838 L 1037 887 L 1046 892 L 1055 895 L 1082 895 L 1089 893 L 1099 888 L 1100 837 L 1090 832 L 1074 828 L 1057 829 L 1047 832 Z M 1054 844 L 1062 841 L 1075 841 L 1079 842 L 1087 847 L 1087 877 L 1084 880 L 1077 883 L 1065 884 L 1052 879 L 1051 847 Z M 961 837 L 962 888 L 972 893 L 979 895 L 1007 895 L 1016 892 L 1017 879 L 1004 883 L 986 883 L 976 879 L 975 847 L 981 843 L 988 841 L 1002 841 L 1017 846 L 1017 833 L 1005 829 L 988 828 L 977 830 Z M 701 837 L 701 888 L 714 895 L 737 895 L 751 889 L 751 894 L 763 894 L 763 837 L 751 831 L 737 828 L 720 829 L 710 832 Z M 722 842 L 737 841 L 744 843 L 749 846 L 750 876 L 745 880 L 738 883 L 727 884 L 722 883 L 714 878 L 714 847 Z M 575 838 L 575 887 L 577 889 L 589 895 L 611 895 L 624 888 L 626 891 L 626 894 L 638 894 L 638 838 L 636 836 L 619 829 L 601 828 L 585 832 Z M 601 841 L 616 842 L 624 847 L 624 876 L 621 879 L 608 884 L 597 883 L 589 878 L 589 847 L 591 845 Z M 553 833 L 540 829 L 521 828 L 509 830 L 494 837 L 493 863 L 535 867 L 540 869 L 540 878 L 531 883 L 512 884 L 493 879 L 494 892 L 504 895 L 534 895 L 546 891 L 553 887 L 553 861 L 513 857 L 506 855 L 507 845 L 518 841 L 537 841 L 553 846 Z M 410 836 L 408 838 L 408 887 L 417 892 L 426 895 L 453 895 L 460 893 L 470 888 L 471 837 L 461 832 L 445 828 L 428 829 L 418 832 Z M 425 844 L 433 841 L 446 841 L 450 842 L 458 847 L 458 877 L 455 880 L 448 883 L 436 884 L 423 879 L 422 847 Z M 303 821 L 303 895 L 317 895 L 318 843 L 344 879 L 369 843 L 370 895 L 384 895 L 384 821 L 369 821 L 345 857 L 342 857 L 318 821 Z M 663 816 L 663 895 L 677 895 L 677 816 Z M 1234 375 L 1227 360 L 1218 352 L 1212 350 L 1199 350 L 1187 356 L 1181 365 L 1181 376 L 1183 381 L 1187 385 L 1193 388 L 1199 388 L 1200 386 L 1199 376 L 1201 372 L 1205 369 L 1211 369 L 1219 376 L 1221 381 L 1221 387 L 1216 397 L 1205 407 L 1192 414 L 1176 418 L 1154 419 L 1153 418 L 1140 418 L 1123 416 L 1048 401 L 1025 398 L 996 398 L 979 401 L 967 405 L 953 412 L 939 422 L 917 445 L 904 464 L 901 471 L 901 474 L 902 476 L 905 477 L 911 468 L 920 458 L 930 451 L 945 443 L 968 435 L 989 431 L 1026 432 L 1090 445 L 1131 450 L 1155 450 L 1172 448 L 1185 445 L 1206 436 L 1217 428 L 1225 419 L 1230 411 L 1234 400 L 1235 394 Z M 96 341 L 87 340 L 80 342 L 72 350 L 67 360 L 66 366 L 68 378 L 65 381 L 60 391 L 58 400 L 59 415 L 64 435 L 61 411 L 63 404 L 66 400 L 77 394 L 92 394 L 114 397 L 119 387 L 120 372 L 118 366 L 109 351 L 102 344 Z M 79 360 L 83 359 L 89 360 L 97 365 L 103 372 L 96 373 L 77 372 Z M 437 385 L 434 377 L 427 369 L 420 365 L 413 363 L 387 362 L 357 365 L 331 366 L 322 365 L 314 362 L 312 360 L 313 355 L 318 350 L 327 344 L 339 339 L 345 339 L 349 342 L 352 342 L 355 336 L 357 328 L 356 320 L 352 317 L 342 317 L 331 322 L 321 329 L 311 339 L 306 346 L 301 356 L 299 363 L 299 374 L 302 380 L 308 384 L 322 387 L 352 386 L 379 383 L 402 383 L 407 384 L 415 388 L 419 395 L 393 395 L 334 399 L 197 398 L 193 382 L 190 375 L 185 368 L 179 364 L 170 363 L 162 366 L 152 376 L 147 388 L 147 402 L 151 411 L 158 417 L 171 421 L 184 422 L 172 435 L 165 440 L 151 446 L 139 446 L 131 443 L 129 447 L 129 450 L 146 459 L 154 461 L 167 461 L 178 455 L 186 446 L 192 436 L 197 421 L 324 421 L 403 415 L 429 415 L 436 399 Z M 156 389 L 162 382 L 165 381 L 173 382 L 183 392 L 185 396 L 184 400 L 170 399 L 160 395 L 157 392 Z M 1450 274 L 1441 265 L 1436 262 L 1428 261 L 1424 263 L 1409 291 L 1402 312 L 1402 320 L 1406 331 L 1411 336 L 1420 339 L 1432 337 L 1439 333 L 1445 326 L 1451 312 L 1452 320 L 1446 330 L 1438 338 L 1413 356 L 1370 380 L 1359 384 L 1323 392 L 1419 376 L 1426 374 L 1440 366 L 1446 360 L 1453 349 L 1459 327 L 1460 317 L 1459 294 L 1456 284 Z M 1408 297 L 1412 289 L 1417 288 L 1425 290 L 1442 299 L 1443 304 L 1440 307 L 1432 309 L 1416 309 L 1409 304 Z M 304 217 L 293 217 L 286 221 L 277 230 L 272 240 L 271 256 L 274 264 L 281 271 L 288 274 L 308 276 L 298 287 L 284 297 L 271 301 L 262 301 L 257 299 L 252 300 L 251 305 L 253 307 L 269 315 L 276 317 L 290 317 L 297 314 L 309 303 L 318 288 L 322 272 L 321 245 L 314 226 L 308 219 Z M 281 243 L 285 238 L 289 236 L 297 236 L 302 239 L 307 245 L 309 253 L 299 254 L 290 252 L 286 250 L 282 246 Z M 254 235 L 250 221 L 243 208 L 239 209 L 231 222 L 231 226 L 241 246 L 221 252 L 208 254 L 176 255 L 161 254 L 147 250 L 141 247 L 132 239 L 128 228 L 128 223 L 131 213 L 129 211 L 123 210 L 118 227 L 117 241 L 120 254 L 124 261 L 130 267 L 141 273 L 160 277 L 200 277 L 224 273 L 244 265 L 247 262 L 251 253 L 254 242 Z M 210 220 L 195 206 L 183 220 L 169 207 L 158 220 L 158 222 L 175 234 L 185 221 L 198 233 L 200 233 Z M 1182 199 L 1165 201 L 1148 206 L 1132 214 L 1118 224 L 1102 241 L 1094 253 L 1085 272 L 1078 298 L 1076 295 L 1071 278 L 1064 264 L 1053 248 L 1037 232 L 1024 223 L 1011 217 L 998 213 L 977 212 L 975 214 L 952 267 L 953 270 L 973 272 L 996 279 L 1012 287 L 1024 295 L 1036 305 L 1051 321 L 1064 340 L 1073 359 L 1081 360 L 1083 358 L 1085 343 L 1090 328 L 1097 314 L 1110 297 L 1121 287 L 1131 280 L 1152 271 L 1168 268 Z M 349 198 L 345 199 L 340 211 L 340 217 L 358 229 L 367 238 L 374 250 L 372 252 L 362 256 L 346 257 L 336 260 L 332 265 L 329 274 L 330 284 L 334 279 L 339 277 L 362 276 L 370 274 L 376 271 L 380 267 L 383 260 L 384 239 L 379 226 L 365 210 Z M 760 0 L 756 0 L 756 5 L 765 24 L 767 30 L 767 35 L 762 41 L 756 43 L 748 40 L 736 29 L 732 22 L 730 14 L 726 8 L 723 8 L 722 17 L 724 23 L 724 34 L 719 43 L 713 47 L 702 46 L 690 39 L 683 29 L 680 19 L 680 15 L 678 13 L 674 14 L 672 32 L 672 56 L 677 74 L 685 84 L 689 86 L 704 85 L 711 81 L 720 72 L 725 65 L 727 65 L 729 67 L 731 72 L 735 76 L 743 80 L 752 80 L 757 78 L 766 70 L 771 62 L 774 53 L 775 33 L 770 16 Z" fill="#F9DF23" fill-rule="evenodd" stroke="none" /></svg>