<svg xmlns="http://www.w3.org/2000/svg" width="1947" height="334" viewBox="0 0 1947 334" role="img" aria-label="Mosalam logo">
  <title>Mosalam logo</title>
  <g fill="#1C4584" fill-rule="evenodd">
    <path d="M 1715 60 L 1715 274 L 1752 274 L 1752 118 L 1753 117 L 1756 121 L 1756 122 L 1759 125 L 1759 126 L 1761 128 L 1761 129 L 1768 137 L 1768 138 L 1770 140 L 1771 143 L 1773 145 L 1773 146 L 1775 148 L 1775 149 L 1778 152 L 1778 153 L 1781 156 L 1781 157 L 1787 164 L 1787 165 L 1789 167 L 1789 168 L 1791 170 L 1791 171 L 1793 173 L 1793 174 L 1795 176 L 1795 177 L 1798 180 L 1798 181 L 1800 183 L 1800 184 L 1803 187 L 1803 188 L 1809 195 L 1809 196 L 1812 200 L 1812 201 L 1815 204 L 1815 205 L 1817 207 L 1817 208 L 1821 212 L 1821 213 L 1825 218 L 1826 218 L 1828 216 L 1828 215 L 1830 213 L 1830 212 L 1834 208 L 1834 207 L 1836 205 L 1836 204 L 1841 198 L 1841 197 L 1844 193 L 1844 192 L 1850 185 L 1850 184 L 1852 182 L 1852 181 L 1855 178 L 1855 177 L 1857 175 L 1857 174 L 1862 168 L 1863 165 L 1866 162 L 1866 161 L 1869 158 L 1869 157 L 1871 155 L 1871 154 L 1877 147 L 1877 146 L 1881 141 L 1882 138 L 1886 134 L 1886 133 L 1891 127 L 1891 126 L 1893 124 L 1893 123 L 1895 121 L 1895 120 L 1898 117 L 1899 118 L 1899 274 L 1936 274 L 1936 60 L 1897 60 L 1894 64 L 1894 65 L 1888 72 L 1888 73 L 1885 77 L 1884 80 L 1881 83 L 1881 84 L 1878 87 L 1878 88 L 1876 90 L 1876 91 L 1873 94 L 1873 95 L 1871 97 L 1871 98 L 1865 106 L 1864 109 L 1861 112 L 1861 113 L 1859 115 L 1859 116 L 1857 118 L 1857 119 L 1854 122 L 1854 123 L 1852 125 L 1852 126 L 1849 129 L 1848 132 L 1846 134 L 1846 135 L 1844 137 L 1844 138 L 1842 140 L 1842 141 L 1839 144 L 1839 145 L 1837 147 L 1837 148 L 1834 151 L 1834 152 L 1832 154 L 1832 155 L 1826 163 L 1825 163 L 1823 161 L 1823 160 L 1821 158 L 1821 157 L 1819 155 L 1819 154 L 1817 152 L 1817 151 L 1815 149 L 1815 148 L 1809 141 L 1809 140 L 1805 135 L 1804 132 L 1802 130 L 1802 129 L 1800 127 L 1800 126 L 1794 119 L 1794 118 L 1792 116 L 1792 115 L 1790 113 L 1790 112 L 1788 110 L 1788 109 L 1786 107 L 1786 106 L 1784 104 L 1784 103 L 1782 101 L 1782 100 L 1780 98 L 1780 97 L 1778 95 L 1778 94 L 1775 91 L 1775 90 L 1773 88 L 1773 87 L 1767 80 L 1765 75 L 1763 73 L 1763 72 L 1761 70 L 1761 69 L 1758 66 L 1758 65 L 1755 62 L 1755 61 L 1754 60 Z M 1311 60 L 1311 274 L 1460 274 L 1460 240 L 1350 240 L 1349 239 L 1349 60 Z M 383 60 L 383 274 L 420 274 L 420 118 L 421 117 L 423 119 L 424 122 L 426 124 L 426 125 L 428 127 L 428 128 L 430 130 L 430 131 L 434 135 L 434 136 L 436 138 L 436 139 L 439 142 L 439 143 L 444 149 L 445 152 L 448 155 L 448 156 L 451 159 L 451 160 L 453 162 L 453 163 L 455 165 L 455 166 L 461 173 L 461 174 L 463 176 L 463 177 L 465 179 L 465 180 L 467 182 L 467 183 L 470 186 L 470 187 L 472 189 L 472 190 L 476 194 L 476 195 L 478 197 L 478 198 L 481 201 L 481 202 L 484 206 L 484 207 L 487 210 L 487 211 L 493 218 L 494 218 L 496 216 L 497 213 L 501 209 L 501 208 L 503 206 L 503 205 L 506 202 L 506 201 L 508 199 L 508 198 L 510 196 L 510 195 L 515 189 L 516 186 L 519 183 L 519 182 L 521 180 L 521 179 L 524 176 L 524 175 L 530 168 L 530 167 L 534 162 L 534 161 L 537 157 L 537 156 L 544 148 L 544 147 L 546 145 L 546 144 L 548 142 L 548 141 L 551 138 L 551 137 L 553 135 L 553 134 L 555 132 L 555 131 L 557 129 L 557 128 L 560 125 L 560 124 L 562 122 L 562 121 L 565 118 L 566 119 L 566 274 L 604 274 L 604 60 L 565 60 L 560 66 L 560 67 L 558 69 L 558 70 L 555 74 L 555 75 L 552 78 L 552 79 L 550 81 L 550 82 L 547 85 L 547 86 L 545 88 L 545 89 L 539 97 L 538 100 L 532 107 L 532 108 L 530 110 L 530 111 L 528 113 L 528 114 L 526 116 L 526 117 L 521 123 L 520 126 L 518 128 L 518 129 L 516 131 L 516 132 L 514 134 L 514 135 L 508 142 L 508 143 L 506 145 L 506 146 L 500 154 L 499 157 L 494 163 L 493 163 L 491 161 L 491 160 L 488 157 L 488 156 L 486 154 L 486 153 L 483 150 L 483 149 L 481 147 L 481 146 L 479 144 L 479 143 L 477 141 L 477 140 L 475 138 L 475 137 L 473 135 L 473 134 L 471 132 L 471 131 L 469 129 L 469 128 L 467 126 L 467 125 L 463 121 L 463 120 L 459 115 L 458 112 L 456 110 L 456 109 L 454 107 L 454 106 L 451 103 L 451 102 L 449 100 L 449 99 L 446 96 L 446 95 L 444 93 L 444 92 L 442 90 L 442 89 L 440 87 L 440 86 L 438 84 L 438 83 L 436 81 L 436 80 L 434 78 L 434 77 L 432 75 L 432 74 L 430 72 L 430 71 L 424 64 L 424 63 L 422 61 L 422 60 Z M 1487 80 L 1486 81 L 1486 274 L 1523 274 L 1523 202 L 1524 201 L 1632 201 L 1633 202 L 1633 274 L 1671 274 L 1671 81 L 1670 81 L 1665 77 L 1664 77 L 1663 76 L 1662 76 L 1661 75 L 1660 75 L 1659 74 L 1658 74 L 1657 73 L 1656 73 L 1645 67 L 1643 67 L 1642 66 L 1641 66 L 1640 65 L 1638 65 L 1637 64 L 1634 64 L 1633 63 L 1631 63 L 1630 62 L 1628 62 L 1627 61 L 1624 61 L 1623 60 L 1621 60 L 1620 59 L 1617 59 L 1616 58 L 1612 58 L 1611 57 L 1607 57 L 1606 56 L 1599 56 L 1598 55 L 1588 55 L 1587 54 L 1569 54 L 1568 55 L 1558 55 L 1557 56 L 1551 56 L 1550 57 L 1545 57 L 1544 58 L 1541 58 L 1540 59 L 1537 59 L 1536 60 L 1533 60 L 1532 61 L 1530 61 L 1529 62 L 1526 62 L 1525 63 L 1523 63 L 1522 64 L 1519 64 L 1516 66 L 1514 66 L 1511 68 L 1509 68 L 1508 69 L 1507 69 L 1506 70 L 1505 70 L 1504 71 L 1503 71 L 1502 72 L 1495 75 L 1493 77 L 1492 77 L 1488 80 Z M 1523 104 L 1532 99 L 1537 98 L 1538 97 L 1539 97 L 1540 96 L 1542 96 L 1543 95 L 1546 95 L 1547 94 L 1549 94 L 1550 93 L 1554 93 L 1555 92 L 1559 92 L 1560 91 L 1567 91 L 1568 90 L 1588 90 L 1589 91 L 1596 91 L 1597 92 L 1602 92 L 1603 93 L 1606 93 L 1607 94 L 1609 94 L 1610 95 L 1613 95 L 1614 96 L 1616 96 L 1619 98 L 1622 98 L 1623 99 L 1624 99 L 1625 100 L 1632 103 L 1633 104 L 1633 166 L 1632 167 L 1524 167 L 1523 166 Z M 1082 80 L 1081 81 L 1081 274 L 1119 274 L 1120 273 L 1120 202 L 1121 201 L 1227 201 L 1228 202 L 1228 274 L 1266 274 L 1266 81 L 1265 80 L 1262 79 L 1260 77 L 1255 75 L 1253 73 L 1252 73 L 1243 68 L 1241 68 L 1238 66 L 1236 66 L 1235 65 L 1233 65 L 1232 64 L 1230 64 L 1229 63 L 1226 63 L 1225 62 L 1223 62 L 1222 61 L 1220 61 L 1219 60 L 1216 60 L 1215 59 L 1212 59 L 1211 58 L 1208 58 L 1207 57 L 1202 57 L 1201 56 L 1195 56 L 1194 55 L 1184 55 L 1183 54 L 1165 54 L 1164 55 L 1153 55 L 1152 56 L 1146 56 L 1145 57 L 1141 57 L 1140 58 L 1136 58 L 1135 59 L 1132 59 L 1131 60 L 1128 60 L 1127 61 L 1125 61 L 1124 62 L 1122 62 L 1121 63 L 1119 63 L 1118 64 L 1115 64 L 1114 65 L 1109 66 L 1100 71 L 1098 71 L 1097 72 L 1094 73 L 1092 75 L 1089 76 L 1087 78 Z M 1120 104 L 1123 101 L 1124 101 L 1127 99 L 1129 99 L 1130 98 L 1132 98 L 1133 97 L 1135 97 L 1136 96 L 1138 96 L 1139 95 L 1141 95 L 1142 94 L 1145 94 L 1146 93 L 1149 93 L 1150 92 L 1154 92 L 1155 91 L 1162 91 L 1163 90 L 1184 90 L 1185 91 L 1192 91 L 1193 92 L 1197 92 L 1198 93 L 1201 93 L 1202 94 L 1205 94 L 1206 95 L 1208 95 L 1209 96 L 1211 96 L 1212 97 L 1214 97 L 1215 98 L 1220 99 L 1221 100 L 1226 102 L 1228 104 L 1228 166 L 1227 167 L 1121 167 L 1120 166 Z M 1042 68 L 1041 68 L 1038 66 L 1033 65 L 1032 64 L 1029 64 L 1028 63 L 1025 63 L 1024 62 L 1022 62 L 1021 61 L 1018 61 L 1017 60 L 1014 60 L 1013 59 L 1009 59 L 1008 58 L 1004 58 L 1003 57 L 998 57 L 997 56 L 991 56 L 990 55 L 978 55 L 977 54 L 958 54 L 957 55 L 946 55 L 945 56 L 939 56 L 938 57 L 933 57 L 932 58 L 929 58 L 928 59 L 925 59 L 924 60 L 921 60 L 920 61 L 918 61 L 917 62 L 915 62 L 914 63 L 911 63 L 910 64 L 907 64 L 906 65 L 904 65 L 901 67 L 899 67 L 898 68 L 897 68 L 896 69 L 895 69 L 894 70 L 893 70 L 892 71 L 891 71 L 890 72 L 889 72 L 888 73 L 881 76 L 879 78 L 878 78 L 873 81 L 873 164 L 874 164 L 875 165 L 878 165 L 879 166 L 882 166 L 883 167 L 886 167 L 887 168 L 890 168 L 891 169 L 895 169 L 896 170 L 899 170 L 900 171 L 903 171 L 904 172 L 908 172 L 909 173 L 913 173 L 914 174 L 918 174 L 919 175 L 923 175 L 924 176 L 928 176 L 929 177 L 932 177 L 933 178 L 936 178 L 937 179 L 940 179 L 941 180 L 944 180 L 945 181 L 949 181 L 950 182 L 953 182 L 954 183 L 957 183 L 958 184 L 961 184 L 962 185 L 966 185 L 967 186 L 970 186 L 971 187 L 974 187 L 975 188 L 978 188 L 979 189 L 983 189 L 984 190 L 987 190 L 988 191 L 992 191 L 993 192 L 996 192 L 997 193 L 1002 193 L 1004 195 L 1004 230 L 995 235 L 993 235 L 992 236 L 990 236 L 989 237 L 987 237 L 986 238 L 984 238 L 983 239 L 981 239 L 980 240 L 977 240 L 976 241 L 972 241 L 971 242 L 966 242 L 965 243 L 956 243 L 955 244 L 935 244 L 934 243 L 925 243 L 924 242 L 917 242 L 916 241 L 911 241 L 910 240 L 907 240 L 906 239 L 902 239 L 901 238 L 898 238 L 897 237 L 894 237 L 893 236 L 891 236 L 890 235 L 887 235 L 886 234 L 883 234 L 882 233 L 880 233 L 877 231 L 875 231 L 874 230 L 873 230 L 873 266 L 874 266 L 875 267 L 877 267 L 878 268 L 880 268 L 881 269 L 884 269 L 885 270 L 888 270 L 889 271 L 891 271 L 892 272 L 895 272 L 896 273 L 899 273 L 900 274 L 903 274 L 904 275 L 907 275 L 908 276 L 913 276 L 914 277 L 920 277 L 921 278 L 929 278 L 930 279 L 964 279 L 965 278 L 972 278 L 973 277 L 978 277 L 979 276 L 983 276 L 984 275 L 987 275 L 988 274 L 991 274 L 992 273 L 995 273 L 996 272 L 998 272 L 999 271 L 1002 271 L 1003 270 L 1005 270 L 1006 269 L 1008 269 L 1009 268 L 1014 267 L 1017 265 L 1019 265 L 1020 264 L 1027 261 L 1029 259 L 1030 259 L 1031 258 L 1038 255 L 1042 252 L 1042 167 L 1039 167 L 1038 166 L 1035 166 L 1034 165 L 1031 165 L 1030 164 L 1026 164 L 1025 163 L 1022 163 L 1021 162 L 1018 162 L 1017 161 L 1013 161 L 1012 160 L 1008 160 L 1007 159 L 1002 159 L 1001 158 L 997 158 L 996 157 L 993 157 L 992 156 L 988 156 L 987 155 L 985 155 L 984 154 L 980 154 L 979 153 L 976 153 L 975 152 L 972 152 L 971 151 L 967 151 L 966 150 L 963 150 L 962 149 L 959 149 L 958 148 L 955 148 L 954 147 L 950 147 L 949 146 L 946 146 L 945 145 L 942 145 L 941 144 L 938 144 L 937 143 L 933 143 L 932 142 L 929 142 L 928 141 L 924 141 L 923 140 L 917 140 L 916 139 L 913 139 L 911 137 L 911 103 L 918 99 L 920 99 L 921 98 L 923 98 L 924 97 L 926 97 L 927 96 L 930 96 L 931 95 L 933 95 L 934 94 L 937 94 L 938 93 L 941 93 L 942 92 L 946 92 L 947 91 L 954 91 L 955 90 L 986 90 L 987 91 L 994 91 L 995 92 L 1000 92 L 1001 93 L 1005 93 L 1006 94 L 1010 94 L 1011 95 L 1014 95 L 1015 96 L 1018 96 L 1019 97 L 1022 97 L 1023 98 L 1026 98 L 1027 99 L 1030 99 L 1031 100 L 1033 100 L 1034 101 L 1035 101 L 1036 102 L 1038 102 L 1039 103 L 1042 103 Z M 655 75 L 653 77 L 652 77 L 650 79 L 649 79 L 646 81 L 646 253 L 649 254 L 651 256 L 654 257 L 656 259 L 657 259 L 664 263 L 666 263 L 673 267 L 675 267 L 676 268 L 678 268 L 679 269 L 682 269 L 683 270 L 685 270 L 686 271 L 688 271 L 689 272 L 692 272 L 693 273 L 695 273 L 696 274 L 699 274 L 700 275 L 704 275 L 705 276 L 709 276 L 710 277 L 715 277 L 716 278 L 724 278 L 725 279 L 757 279 L 758 278 L 766 278 L 767 277 L 772 277 L 773 276 L 777 276 L 778 275 L 781 275 L 782 274 L 786 274 L 787 273 L 789 273 L 790 272 L 793 272 L 794 271 L 796 271 L 797 270 L 799 270 L 800 269 L 802 269 L 803 268 L 806 268 L 809 266 L 811 266 L 812 265 L 813 265 L 814 264 L 815 264 L 816 263 L 817 263 L 818 262 L 819 262 L 820 261 L 821 261 L 822 260 L 829 257 L 831 255 L 834 254 L 836 252 L 836 81 L 835 81 L 833 79 L 830 78 L 828 76 L 827 76 L 826 75 L 825 75 L 824 74 L 823 74 L 812 68 L 810 68 L 807 66 L 805 66 L 804 65 L 802 65 L 801 64 L 799 64 L 798 63 L 795 63 L 794 62 L 792 62 L 791 61 L 788 61 L 787 60 L 785 60 L 784 59 L 780 59 L 779 58 L 776 58 L 775 57 L 770 57 L 769 56 L 763 56 L 762 55 L 751 55 L 750 54 L 732 54 L 731 55 L 720 55 L 719 56 L 713 56 L 712 57 L 707 57 L 706 58 L 702 58 L 701 59 L 698 59 L 697 60 L 694 60 L 693 61 L 691 61 L 690 62 L 688 62 L 687 63 L 684 63 L 683 64 L 680 64 L 679 65 L 677 65 L 674 67 L 672 67 L 665 71 L 663 71 L 662 72 Z M 686 102 L 687 102 L 692 99 L 694 99 L 695 98 L 697 98 L 698 97 L 700 97 L 701 96 L 703 96 L 704 95 L 706 95 L 707 94 L 710 94 L 711 93 L 715 93 L 716 92 L 720 92 L 721 91 L 729 91 L 730 90 L 752 90 L 753 91 L 760 91 L 761 92 L 766 92 L 767 93 L 770 93 L 771 94 L 774 94 L 775 95 L 777 95 L 778 96 L 780 96 L 781 97 L 783 97 L 784 98 L 789 99 L 790 100 L 795 102 L 797 104 L 797 230 L 796 231 L 795 231 L 790 234 L 788 234 L 785 236 L 783 236 L 782 237 L 780 237 L 779 238 L 777 238 L 776 239 L 773 239 L 772 240 L 769 240 L 768 241 L 764 241 L 763 242 L 758 242 L 757 243 L 725 243 L 724 242 L 718 242 L 717 241 L 713 241 L 712 240 L 709 240 L 708 239 L 706 239 L 705 238 L 703 238 L 702 237 L 700 237 L 699 236 L 697 236 L 696 235 L 691 234 L 690 233 L 687 232 L 684 229 L 684 104 Z M 148 11 L 147 12 L 141 12 L 140 13 L 135 13 L 134 14 L 131 14 L 130 15 L 127 15 L 126 16 L 123 16 L 122 17 L 120 17 L 119 18 L 117 18 L 116 19 L 111 20 L 108 22 L 106 22 L 99 26 L 97 26 L 96 27 L 95 27 L 94 28 L 87 31 L 85 33 L 84 33 L 82 35 L 81 35 L 79 37 L 78 37 L 76 39 L 75 39 L 72 42 L 71 42 L 68 45 L 67 45 L 63 49 L 62 49 L 48 63 L 48 64 L 43 69 L 43 70 L 40 73 L 40 74 L 38 76 L 38 77 L 35 80 L 35 81 L 31 86 L 29 91 L 27 93 L 27 95 L 26 96 L 26 97 L 22 104 L 22 106 L 19 111 L 19 113 L 18 114 L 18 116 L 17 117 L 17 119 L 16 120 L 16 122 L 15 123 L 15 125 L 14 126 L 14 129 L 13 130 L 13 133 L 12 134 L 12 138 L 11 139 L 11 144 L 10 145 L 10 170 L 11 171 L 11 176 L 12 177 L 12 180 L 13 181 L 13 183 L 14 184 L 15 189 L 16 190 L 19 197 L 21 199 L 22 202 L 24 204 L 24 205 L 26 207 L 26 208 L 41 223 L 42 223 L 46 227 L 47 227 L 49 229 L 50 229 L 51 230 L 52 230 L 53 231 L 54 231 L 55 232 L 56 232 L 57 233 L 58 233 L 69 239 L 71 239 L 74 241 L 77 241 L 78 242 L 80 242 L 81 243 L 85 243 L 86 244 L 91 244 L 92 245 L 114 245 L 115 244 L 121 244 L 122 243 L 126 243 L 127 242 L 130 242 L 131 241 L 133 241 L 138 238 L 140 238 L 142 236 L 145 235 L 153 229 L 153 228 L 156 225 L 156 224 L 158 222 L 158 221 L 160 218 L 160 212 L 159 211 L 159 210 L 156 207 L 156 206 L 155 205 L 153 205 L 149 209 L 148 209 L 145 212 L 144 212 L 139 216 L 137 216 L 132 219 L 130 219 L 129 220 L 128 220 L 127 221 L 125 221 L 124 222 L 121 222 L 120 223 L 117 223 L 116 224 L 110 224 L 109 225 L 96 225 L 95 224 L 89 224 L 88 223 L 85 223 L 84 222 L 81 222 L 80 221 L 78 221 L 77 220 L 76 220 L 75 219 L 73 219 L 68 216 L 66 216 L 62 213 L 61 213 L 58 210 L 57 210 L 48 201 L 47 201 L 45 199 L 45 198 L 41 194 L 41 193 L 38 189 L 35 182 L 36 181 L 41 185 L 44 186 L 46 188 L 47 188 L 56 193 L 59 193 L 60 194 L 62 194 L 63 195 L 62 196 L 63 196 L 64 195 L 65 196 L 67 196 L 68 197 L 71 197 L 72 198 L 76 198 L 77 199 L 81 199 L 82 200 L 91 200 L 92 201 L 106 201 L 107 200 L 111 200 L 112 199 L 114 199 L 117 197 L 119 197 L 121 195 L 122 195 L 126 192 L 127 192 L 133 186 L 133 185 L 135 183 L 135 182 L 136 181 L 136 180 L 137 179 L 137 178 L 143 167 L 146 171 L 146 173 L 149 178 L 149 180 L 150 181 L 150 182 L 151 183 L 154 190 L 158 195 L 158 196 L 161 200 L 161 201 L 164 204 L 164 205 L 175 216 L 176 216 L 182 222 L 183 222 L 188 226 L 189 226 L 200 232 L 202 232 L 203 233 L 204 233 L 205 234 L 207 234 L 210 236 L 212 236 L 213 237 L 216 237 L 217 238 L 219 238 L 220 239 L 222 239 L 223 240 L 226 240 L 227 241 L 231 241 L 232 242 L 248 242 L 249 241 L 252 241 L 253 240 L 256 239 L 258 237 L 259 237 L 263 233 L 263 232 L 266 228 L 266 226 L 268 223 L 268 219 L 269 218 L 269 181 L 268 180 L 268 170 L 267 169 L 267 163 L 266 162 L 266 158 L 265 157 L 265 154 L 264 153 L 264 150 L 263 149 L 263 147 L 262 146 L 261 141 L 260 140 L 260 139 L 259 138 L 259 136 L 256 131 L 256 129 L 253 125 L 253 124 L 251 122 L 249 117 L 245 113 L 245 112 L 239 106 L 238 106 L 232 101 L 227 99 L 225 97 L 223 97 L 222 96 L 221 96 L 220 95 L 218 95 L 217 94 L 214 94 L 213 93 L 210 93 L 209 92 L 202 92 L 201 91 L 193 91 L 192 92 L 186 92 L 185 93 L 182 93 L 181 94 L 176 95 L 172 98 L 171 98 L 167 101 L 166 101 L 160 106 L 160 107 L 156 111 L 156 112 L 153 116 L 153 119 L 154 120 L 154 122 L 156 125 L 157 130 L 159 133 L 159 136 L 161 139 L 161 141 L 163 144 L 163 146 L 164 147 L 164 148 L 165 149 L 165 151 L 167 154 L 167 156 L 166 157 L 166 158 L 163 163 L 163 165 L 160 170 L 158 168 L 158 167 L 156 164 L 156 162 L 155 161 L 155 160 L 154 159 L 154 158 L 153 157 L 153 156 L 152 155 L 152 154 L 151 153 L 151 152 L 150 151 L 150 150 L 149 149 L 146 142 L 144 140 L 143 140 L 142 141 L 142 142 L 141 143 L 141 144 L 140 145 L 137 152 L 135 154 L 135 155 L 133 157 L 133 158 L 131 160 L 131 161 L 126 166 L 126 167 L 117 176 L 116 176 L 114 178 L 111 178 L 110 179 L 105 179 L 104 180 L 85 180 L 84 179 L 77 179 L 76 178 L 70 178 L 69 177 L 66 177 L 65 176 L 60 175 L 57 173 L 55 173 L 54 172 L 49 170 L 47 168 L 46 168 L 42 165 L 41 165 L 37 161 L 36 161 L 30 156 L 30 155 L 29 154 L 29 151 L 30 150 L 30 143 L 31 142 L 31 138 L 32 137 L 32 134 L 33 133 L 33 131 L 34 130 L 34 128 L 35 127 L 36 122 L 38 119 L 38 117 L 41 112 L 41 110 L 42 109 L 45 102 L 47 100 L 48 97 L 53 91 L 53 90 L 55 88 L 55 87 L 57 85 L 57 84 L 60 81 L 60 80 L 79 61 L 80 61 L 82 59 L 83 59 L 86 56 L 87 56 L 89 54 L 90 54 L 98 48 L 99 48 L 100 47 L 105 45 L 107 43 L 109 43 L 112 41 L 114 41 L 115 40 L 117 40 L 118 39 L 120 39 L 121 38 L 123 38 L 124 37 L 126 37 L 127 36 L 129 36 L 130 35 L 133 35 L 134 34 L 137 34 L 138 33 L 142 33 L 143 32 L 149 32 L 150 31 L 181 31 L 182 32 L 187 32 L 188 33 L 192 33 L 193 34 L 197 34 L 198 35 L 200 35 L 201 36 L 204 36 L 205 37 L 207 37 L 208 38 L 213 39 L 216 41 L 221 42 L 222 43 L 229 46 L 231 48 L 234 49 L 236 51 L 237 51 L 239 53 L 240 53 L 242 55 L 243 55 L 245 57 L 246 57 L 249 60 L 250 60 L 252 62 L 253 62 L 254 63 L 254 64 L 256 66 L 257 66 L 258 67 L 258 68 L 273 83 L 273 84 L 275 86 L 275 87 L 277 89 L 277 90 L 283 98 L 284 101 L 286 103 L 286 104 L 290 111 L 290 113 L 292 116 L 292 118 L 293 119 L 293 121 L 294 122 L 294 124 L 295 125 L 295 127 L 296 128 L 296 131 L 297 132 L 297 134 L 298 135 L 298 139 L 299 140 L 299 144 L 300 145 L 300 151 L 301 152 L 301 181 L 300 182 L 300 188 L 299 189 L 299 194 L 298 195 L 298 198 L 297 199 L 297 202 L 296 203 L 296 205 L 295 206 L 295 208 L 294 209 L 294 211 L 293 212 L 293 214 L 292 215 L 291 220 L 290 221 L 290 222 L 289 223 L 289 224 L 288 225 L 288 226 L 287 227 L 284 234 L 282 236 L 282 237 L 280 239 L 280 240 L 278 242 L 278 243 L 276 245 L 276 246 L 273 249 L 272 252 L 251 273 L 250 273 L 248 275 L 247 275 L 245 277 L 244 277 L 242 279 L 241 279 L 235 284 L 230 286 L 228 288 L 227 288 L 222 291 L 217 292 L 214 294 L 212 294 L 211 295 L 209 295 L 208 296 L 206 296 L 205 297 L 203 297 L 202 298 L 199 298 L 198 299 L 196 299 L 195 300 L 191 300 L 190 301 L 185 301 L 184 302 L 177 302 L 176 303 L 155 303 L 154 302 L 147 302 L 146 301 L 141 301 L 140 300 L 136 300 L 135 299 L 132 299 L 131 298 L 128 298 L 127 297 L 125 297 L 124 296 L 119 295 L 116 293 L 111 292 L 106 289 L 104 289 L 102 287 L 97 285 L 95 283 L 94 283 L 92 281 L 91 281 L 89 279 L 88 279 L 86 277 L 85 277 L 83 275 L 82 275 L 78 271 L 77 271 L 67 261 L 42 261 L 42 263 L 45 266 L 45 267 L 65 287 L 66 287 L 69 290 L 70 290 L 73 293 L 74 293 L 77 296 L 78 296 L 83 300 L 86 301 L 88 303 L 89 303 L 96 307 L 98 307 L 99 308 L 100 308 L 105 311 L 107 311 L 110 313 L 112 313 L 113 314 L 115 314 L 116 315 L 118 315 L 119 316 L 121 316 L 122 317 L 124 317 L 125 318 L 128 318 L 129 319 L 132 319 L 133 320 L 137 320 L 138 321 L 143 321 L 144 322 L 152 322 L 153 323 L 178 323 L 179 322 L 186 322 L 187 321 L 192 321 L 193 320 L 198 320 L 199 319 L 202 319 L 203 318 L 205 318 L 206 317 L 209 317 L 210 316 L 212 316 L 213 315 L 218 314 L 221 312 L 223 312 L 226 310 L 228 310 L 233 307 L 235 307 L 236 306 L 239 305 L 241 303 L 242 303 L 243 302 L 246 301 L 248 299 L 249 299 L 252 296 L 253 296 L 255 294 L 256 294 L 259 291 L 260 291 L 262 289 L 263 289 L 267 285 L 268 285 L 281 272 L 281 271 L 287 265 L 287 264 L 290 261 L 290 260 L 292 258 L 292 257 L 295 254 L 295 253 L 301 245 L 301 244 L 307 233 L 307 231 L 310 226 L 311 221 L 313 218 L 313 216 L 314 215 L 314 213 L 315 212 L 315 209 L 316 208 L 316 206 L 317 205 L 317 202 L 318 201 L 318 197 L 319 196 L 319 192 L 320 191 L 320 185 L 321 184 L 321 150 L 320 149 L 320 143 L 319 142 L 319 137 L 318 136 L 318 132 L 317 131 L 317 128 L 316 127 L 316 125 L 315 124 L 315 122 L 314 121 L 314 119 L 313 118 L 313 116 L 312 115 L 311 110 L 308 105 L 308 103 L 306 100 L 306 98 L 305 97 L 302 90 L 300 88 L 300 87 L 298 85 L 298 84 L 296 82 L 296 81 L 294 79 L 294 78 L 291 75 L 291 74 L 289 72 L 289 71 L 286 68 L 286 67 L 266 47 L 265 47 L 262 44 L 261 44 L 254 38 L 253 38 L 245 32 L 242 31 L 240 29 L 239 29 L 234 26 L 232 26 L 229 24 L 227 24 L 222 21 L 217 20 L 214 18 L 211 18 L 210 17 L 208 17 L 207 16 L 205 16 L 204 15 L 201 15 L 200 14 L 196 14 L 195 13 L 190 13 L 189 12 L 184 12 L 183 11 L 170 11 L 169 10 L 162 10 L 161 11 Z M 176 117 L 177 117 L 180 115 L 182 115 L 185 113 L 188 113 L 189 112 L 194 112 L 195 111 L 201 111 L 202 112 L 207 112 L 208 113 L 213 114 L 214 115 L 221 118 L 226 123 L 227 123 L 228 124 L 228 125 L 234 131 L 234 132 L 236 134 L 237 137 L 239 139 L 239 140 L 242 145 L 242 147 L 244 150 L 244 152 L 246 155 L 246 157 L 247 158 L 247 161 L 248 162 L 248 165 L 249 166 L 249 169 L 250 170 L 250 173 L 251 174 L 251 180 L 252 181 L 252 192 L 253 193 L 253 199 L 252 200 L 252 215 L 251 216 L 251 218 L 249 220 L 248 220 L 247 221 L 242 221 L 241 220 L 234 220 L 233 219 L 229 219 L 228 218 L 224 218 L 223 217 L 220 217 L 219 216 L 216 216 L 215 215 L 212 215 L 211 214 L 210 214 L 209 213 L 208 213 L 207 212 L 206 212 L 205 211 L 204 211 L 203 210 L 196 207 L 194 205 L 193 205 L 191 203 L 190 203 L 187 200 L 186 200 L 183 197 L 182 197 L 174 189 L 174 188 L 172 186 L 172 181 L 173 180 L 173 178 L 174 177 L 175 172 L 178 168 L 179 165 L 181 163 L 181 162 L 190 153 L 191 153 L 194 150 L 196 150 L 197 149 L 200 149 L 201 148 L 202 149 L 205 149 L 209 152 L 210 152 L 214 157 L 214 158 L 215 159 L 215 161 L 216 162 L 216 166 L 217 167 L 217 177 L 216 178 L 213 177 L 211 175 L 210 175 L 208 173 L 207 173 L 204 170 L 203 170 L 197 164 L 196 164 L 193 161 L 192 161 L 187 165 L 187 166 L 183 173 L 184 176 L 186 178 L 187 178 L 191 182 L 192 182 L 196 186 L 197 186 L 203 191 L 204 191 L 205 192 L 206 192 L 207 193 L 208 193 L 209 194 L 216 197 L 218 199 L 219 199 L 220 200 L 222 200 L 223 201 L 229 201 L 230 200 L 231 200 L 231 199 L 232 198 L 232 195 L 233 194 L 233 188 L 234 187 L 234 179 L 233 178 L 233 171 L 232 170 L 232 166 L 231 165 L 231 161 L 230 160 L 229 155 L 228 154 L 228 153 L 227 152 L 224 145 L 221 142 L 221 141 L 212 132 L 211 132 L 208 130 L 206 130 L 205 129 L 198 129 L 197 130 L 192 131 L 188 134 L 185 135 L 179 140 L 176 141 L 175 140 L 173 135 L 171 133 L 170 130 L 167 126 L 167 125 L 172 120 L 173 120 Z"/>
  </g>
</svg>
