<svg xmlns="http://www.w3.org/2000/svg" id="_x5F_Bezier_Preview" viewBox="0 0 1745.18 1745.18"><defs><style>.st0{fill:#004c3f}</style></defs><path d="M242.65 1367.33v-65.56h15.95l26.32 45.21v-45.21h12.2v65.56h-13.85L254.84 1319v48.33h-12.2Z" class="st0"/><path d="M297.12 1368.47h-13.85c-.41 0-.78-.21-.98-.56l-26.3-44.71v44.14c0 .63-.51 1.14-1.14 1.14h-12.2c-.63 0-1.14-.51-1.14-1.14v-65.56c0-.63.51-1.14 1.14-1.14h15.96c.41 0 .78.21.98.57l24.19 41.55v-40.98c0-.63.51-1.14 1.14-1.14h12.2c.63 0 1.14.51 1.14 1.14v65.56c0 .63-.51 1.14-1.14 1.14Zm-13.19-2.29h12.05v-63.28h-9.92v44.06c0 .52-.35.97-.84 1.1-.5.14-1.02-.08-1.28-.53l-25.98-44.64H243.8v63.28h9.92v-47.18c0-.51.34-.97.84-1.1.49-.13 1.02.08 1.28.52l28.09 47.76ZM306.93 1367.33l21.73-65.56h17.7l21.46 65.56H353.7l-4.77-15.41h-24.39l-4.86 15.41zm29.8-54.47-9.17 29.34h18.34z" class="st0"/><path d="M367.82 1368.47H353.7c-.5 0-.94-.33-1.09-.8l-4.52-14.6h-22.71l-4.61 14.61c-.15.48-.59.8-1.09.8h-12.75c-.37 0-.71-.17-.93-.47-.21-.3-.27-.68-.16-1.03l21.73-65.56c.16-.46.59-.78 1.08-.78h17.7c.49 0 .93.32 1.08.78l21.46 65.56c.12.35.05.73-.16 1.02-.21.3-.56.47-.92.47Zm-13.28-2.29h11.71l-20.71-63.28h-16.05l-20.98 63.28h10.33l4.61-14.61c.15-.48.59-.8 1.09-.8h24.39c.5 0 .94.33 1.09.8l4.52 14.6Zm-8.64-22.84h-18.34c-.36 0-.7-.17-.92-.46-.21-.29-.28-.67-.17-1.02l9.17-29.34c.29-.95 1.88-.95 2.17 0l9.17 29.34a1.135 1.135 0 0 1-1.09 1.48Zm-16.79-2.28h15.24l-7.62-24.38zM373.58 1366.13v-10.45c2.29.83 4.58 1.56 8.34 1.56 5.87 0 9.54-3.03 9.54-10.73v-44.75h13.75v45.02c0 14.4-8.16 21.37-21 21.37-5.59 0-8.35-.92-10.64-2.02Z" class="st0"/><path d="M384.22 1369.29c-5.89 0-8.83-1.02-11.13-2.13-.4-.19-.65-.59-.65-1.03v-10.45c0-.37.18-.72.49-.93.3-.21.7-.26 1.04-.14 2.27.82 4.43 1.49 7.95 1.49 5.73 0 8.4-3.05 8.4-9.59v-44.75c0-.63.51-1.14 1.14-1.14h13.76c.63 0 1.14.51 1.14 1.14v45.02c0 14.3-8.07 22.51-22.14 22.51m-9.5-3.89c2.22.98 4.83 1.61 9.5 1.61 12.8 0 19.86-7.18 19.86-20.23v-43.88h-11.47v43.6c0 9.81-5.81 11.87-10.68 11.87-3.07 0-5.25-.48-7.2-1.11v8.13ZM419.24 1367.33v-65.56h20.82c22.83 0 34.11 12.66 34.11 32.1v.73c0 19.44-11.28 32.74-34.29 32.74h-20.63Zm13.66-10.73h6.61c13.85 0 20.54-7.89 20.54-21.82v-.73c0-13.66-6.14-21.64-20.72-21.64h-6.42v44.2Z" class="st0"/><path d="M439.88 1368.47h-20.63c-.63 0-1.14-.51-1.14-1.14v-65.56c0-.63.51-1.14 1.14-1.14h20.82c22.41 0 35.25 12.11 35.25 33.24v.73c0 21.21-13.25 33.88-35.44 33.88Zm-19.5-2.29h19.49c21.07 0 33.15-11.52 33.15-31.6v-.73c0-19.96-11.71-30.95-32.97-30.95h-19.67zm19.13-8.44h-6.6c-.63 0-1.14-.51-1.14-1.14v-44.2c0-.63.51-1.14 1.14-1.14h6.42c14.51 0 21.86 7.66 21.86 22.78v.73c0 15.03-7.5 22.97-21.68 22.97m-5.46-2.28h5.46c12.87 0 19.4-6.96 19.4-20.69v-.73c0-13.79-6.4-20.5-19.58-20.5h-5.28zM519 1367.33v-54.93h-17.97v-10.64h49.61v10.64h-17.97v54.93h-13.66Z" class="st0"/><path d="M532.66 1368.47H519c-.63 0-1.14-.51-1.14-1.14v-53.78h-16.83c-.63 0-1.14-.51-1.14-1.14v-10.64c0-.63.51-1.14 1.14-1.14h49.61c.63 0 1.14.51 1.14 1.14v10.64c0 .63-.51 1.14-1.14 1.14h-16.83v53.78c0 .63-.51 1.14-1.14 1.14Zm-12.52-2.29h11.38v-53.78c0-.63.51-1.14 1.14-1.14h16.83v-8.36h-47.33v8.36h16.83c.63 0 1.14.51 1.14 1.14v53.78ZM560.62 1367.33v-65.56h22.83c7.43 0 13.48 1.56 17.97 4.77 4.59 3.21 6.88 8.07 6.88 14.76v.37c0 10-6.05 15.31-13.85 17.51l17.7 28.15h-14.49l-16.32-25.86h-7.15v25.86zm13.58-35.31h8.98c7.7 0 11.83-3.3 11.83-9.9v-.37c0-6.97-4.4-9.54-11.74-9.54h-9.08v19.81Z" class="st0"/><path d="M612.16 1368.47h-14.49c-.39 0-.76-.2-.96-.53l-15.99-25.33h-5.38v24.71c0 .63-.51 1.14-1.14 1.14h-13.57c-.63 0-1.14-.51-1.14-1.14v-65.56c0-.63.51-1.14 1.14-1.14h22.83c7.74 0 14.01 1.68 18.64 4.98 4.88 3.41 7.36 8.69 7.36 15.69v.37c0 8.84-4.68 15.24-13.24 18.16l16.91 26.9a1.146 1.146 0 0 1-.97 1.75m-13.86-2.29h11.8l-16.6-26.4a1.147 1.147 0 0 1 .65-1.71c5.94-1.68 13.02-5.89 13.02-16.42v-.37c0-6.3-2.09-10.82-6.39-13.83-4.24-3.03-10.06-4.56-17.32-4.56h-21.69v63.28h11.29v-24.71c0-.63.51-1.14 1.14-1.14h7.15c.39 0 .76.2.96.53zm-15.12-33.02h-8.98c-.63 0-1.14-.51-1.14-1.14v-19.8c0-.63.51-1.14 1.14-1.14h9.08c8.55 0 12.88 3.59 12.88 10.68v.37c0 7.12-4.61 11.04-12.97 11.04Zm-7.84-2.28h7.84c7.19 0 10.69-2.87 10.69-8.76v-.37c0-5.81-3.27-8.4-10.6-8.4h-7.94v17.52ZM616.83 1367.33l21.73-65.56h17.7l21.46 65.56H663.6l-4.77-15.41h-24.39l-4.86 15.41zm29.8-54.47-9.17 29.34h18.34z" class="st0"/><path d="M677.72 1368.47H663.6c-.5 0-.94-.33-1.09-.8l-4.52-14.6h-22.71l-4.61 14.61c-.15.48-.59.8-1.09.8h-12.75c-.37 0-.71-.17-.93-.47-.21-.3-.27-.68-.16-1.03l21.73-65.56c.16-.46.59-.78 1.08-.78h17.7c.49 0 .93.32 1.08.78l21.46 65.56c.12.35.05.73-.16 1.02-.21.3-.56.47-.92.47Zm-13.28-2.29h11.71l-20.71-63.28h-16.05l-20.97 63.28h10.33l4.61-14.61c.15-.48.59-.8 1.09-.8h24.39c.5 0 .94.33 1.09.8l4.52 14.6Zm-8.64-22.84h-18.34c-.36 0-.7-.17-.92-.46-.21-.29-.28-.67-.17-1.02l9.17-29.34c.29-.95 1.88-.95 2.17 0l9.17 29.34a1.135 1.135 0 0 1-1.09 1.48Zm-16.79-2.28h15.24l-7.62-24.38zM697.52 1367.33l-22.1-65.56h14.4l16.32 51.63 16.32-51.63h12.84l-22.1 65.56z" class="st0"/><path d="M713.2 1368.47h-15.68c-.49 0-.92-.31-1.08-.78l-22.1-65.56c-.12-.35-.06-.73.16-1.03s.56-.48.93-.48h14.4c.5 0 .94.32 1.09.8l15.24 48.19 15.23-48.19c.15-.48.59-.8 1.09-.8h12.84c.37 0 .71.18.93.48s.27.68.16 1.03l-22.1 65.56c-.16.46-.59.78-1.08.78Zm-14.86-2.29h14.04l21.33-63.28H723.3l-16.07 50.83c-.3.95-1.87.95-2.17 0l-16.07-50.83h-11.97l21.33 63.28ZM744.73 1367.33v-65.56h42v10.64H758.3v16.6h22.74v10.09H758.3v17.51h29.99v10.73h-43.56Z" class="st0"/><path d="M788.29 1368.47h-43.56c-.63 0-1.14-.51-1.14-1.14v-65.56c0-.63.51-1.14 1.14-1.14h42c.63 0 1.14.51 1.14 1.14v10.64c0 .63-.51 1.14-1.14 1.14h-27.29v14.31h21.6c.63 0 1.14.51 1.14 1.14v10.09c0 .63-.51 1.14-1.14 1.14h-21.6v15.23h28.85c.63 0 1.14.51 1.14 1.14v10.73c0 .63-.51 1.14-1.14 1.14m-42.41-2.29h41.27v-8.44H758.3c-.63 0-1.14-.51-1.14-1.14v-17.51c0-.63.51-1.14 1.14-1.14h21.6v-7.81h-21.6c-.63 0-1.14-.51-1.14-1.14v-16.6c0-.63.51-1.14 1.14-1.14h27.29v-8.36h-39.71zM799.2 1367.33v-65.56h13.66v54.84h27.23v10.73h-40.9Z" class="st0"/><path d="M840.09 1368.47h-40.9c-.63 0-1.14-.51-1.14-1.14v-65.56c0-.63.51-1.14 1.14-1.14h13.66c.63 0 1.14.51 1.14 1.14v53.69h26.09c.63 0 1.14.51 1.14 1.14v10.73c0 .63-.51 1.14-1.14 1.14Zm-39.75-2.29h38.61v-8.44h-26.09c-.63 0-1.14-.51-1.14-1.14v-53.69h-11.38v63.28ZM865.85 1367.33l21.73-65.56h17.7l21.46 65.56h-14.12l-4.77-15.41h-24.39l-4.86 15.41zm29.8-54.47-9.17 29.34h18.34z" class="st0"/><path d="M926.74 1368.47h-14.12c-.5 0-.94-.33-1.09-.8l-4.52-14.6H884.3l-4.61 14.61c-.15.48-.59.8-1.09.8h-12.75c-.37 0-.71-.17-.93-.47-.21-.3-.27-.68-.16-1.03l21.73-65.56c.16-.46.59-.78 1.08-.78h17.7c.49 0 .93.32 1.08.78l21.46 65.56c.12.35.05.73-.16 1.02-.21.3-.56.47-.92.47Zm-13.28-2.29h11.71l-20.71-63.28h-16.05l-20.97 63.28h10.33l4.61-14.61c.15-.48.59-.8 1.09-.8h24.39c.5 0 .94.33 1.09.8l4.52 14.6Zm-8.64-22.84h-18.34c-.36 0-.7-.17-.92-.46-.21-.29-.28-.67-.17-1.02l9.17-29.34c.29-.95 1.88-.95 2.17 0l9.17 29.34a1.135 1.135 0 0 1-1.09 1.48Zm-16.78-2.28h15.24l-7.62-24.38zM936.54 1367.33v-65.56h15.95l26.32 45.21v-45.21h12.2v65.56h-13.85L948.73 1319v48.33h-12.2Z" class="st0"/><path d="M991.01 1368.47h-13.85c-.41 0-.78-.21-.98-.56l-26.3-44.71v44.14c0 .63-.51 1.14-1.14 1.14h-12.2c-.63 0-1.14-.51-1.14-1.14v-65.56c0-.63.51-1.14 1.14-1.14h15.96c.41 0 .78.21.98.57l24.19 41.55v-40.98c0-.63.51-1.14 1.14-1.14h12.2c.63 0 1.14.51 1.14 1.14v65.56c0 .63-.51 1.14-1.14 1.14Zm-13.2-2.29h12.05v-63.28h-9.92v44.06a1.137 1.137 0 0 1-2.12.57l-25.98-44.64h-14.16v63.28h9.92v-47.18c0-.51.34-.97.84-1.1s1.02.08 1.28.52l28.09 47.76ZM1005.86 1367.33v-65.56h20.82c22.83 0 34.11 12.66 34.11 32.1v.73c0 19.44-11.28 32.74-34.29 32.74h-20.63Zm13.66-10.73h6.61c13.85 0 20.54-7.89 20.54-21.82v-.73c0-13.66-6.14-21.64-20.72-21.64h-6.42v44.2Z" class="st0"/><path d="M1026.49 1368.47h-20.63c-.63 0-1.14-.51-1.14-1.14v-65.56c0-.63.51-1.14 1.14-1.14h20.82c22.4 0 35.25 12.11 35.25 33.24v.73c0 21.21-13.25 33.88-35.44 33.88Zm-19.49-2.29h19.49c21.07 0 33.15-11.52 33.15-31.6v-.73c0-19.96-11.71-30.95-32.97-30.95h-19.68v63.28Zm19.12-8.44h-6.6c-.63 0-1.14-.51-1.14-1.14v-44.2c0-.63.51-1.14 1.14-1.14h6.42c14.51 0 21.87 7.66 21.87 22.78v.73c0 15.03-7.5 22.97-21.68 22.97Zm-5.46-2.28h5.46c12.87 0 19.4-6.96 19.4-20.69v-.73c0-13.79-6.41-20.5-19.59-20.5h-5.28v41.92ZM1105.61 1367.33v-54.93h-17.97v-10.64h49.61v10.64h-17.97v54.93h-13.66Z" class="st0"/><path d="M1119.28 1368.47h-13.67c-.63 0-1.14-.51-1.14-1.14v-53.78h-16.83c-.63 0-1.14-.51-1.14-1.14v-10.64c0-.63.51-1.14 1.14-1.14h49.61c.63 0 1.14.51 1.14 1.14v10.64c0 .63-.51 1.14-1.14 1.14h-16.83v53.78c0 .63-.51 1.14-1.14 1.14m-12.53-2.29h11.39v-53.78c0-.63.51-1.14 1.14-1.14h16.83v-8.36h-47.33v8.36h16.83c.63 0 1.14.51 1.14 1.14zM1141.19 1334.96v-.73c0-19.35 14.12-33.38 33.56-33.38s33.47 13.57 33.47 33.01v.73c0 19.44-13.39 33.75-33.47 33.75s-33.56-14.3-33.56-33.38m47.68 16.23c3.39-4.13 5.14-9.63 5.14-16.41v-.73c0-13.2-7.24-22.47-19.26-22.47s-19.35 8.99-19.35 22.56v.73c0 13.66 8.25 22.56 19.53 22.56 5.87 0 10.54-2.11 13.94-6.24" class="st0"/><path d="M1174.75 1369.48c-20.43 0-34.71-14.19-34.71-34.52v-.74c0-20 14.59-34.52 34.71-34.52s34.61 14.05 34.61 34.15v.73c0 20.54-14.23 34.89-34.61 34.89Zm0-67.49c-18.79 0-32.42 13.56-32.42 32.24v.74c0 18.98 13.33 32.24 32.42 32.24s32.33-13.41 32.33-32.61v-.73c0-18.77-13.29-31.87-32.33-31.87Zm.18 56.57c-12.17 0-20.68-9.75-20.68-23.7v-.74c0-14.4 8.04-23.7 20.49-23.7s20.4 9.27 20.4 23.61v.73c0 7.02-1.81 12.79-5.39 17.14-3.63 4.41-8.62 6.65-14.82 6.65Zm-.18-45.85c-11.23 0-18.21 8.21-18.21 21.42v.74c0 12.81 7.39 21.42 18.4 21.42 5.49 0 9.88-1.96 13.06-5.82 3.24-3.93 4.88-9.21 4.88-15.69v-.73c0-12.95-7.11-21.33-18.11-21.33Zm14.12 38.48h.03zM1219.12 1342.02v-40.26h13.66v39.43c0 11.37 3.48 16.23 12.93 16.23s13.39-4.4 13.39-16.96v-38.7h13.66v39.61c0 17.51-9.63 26.96-27.14 26.96s-26.5-9.17-26.5-26.32Z" class="st0"/><path d="M1245.62 1369.48c-17.57 0-27.64-10.01-27.64-27.46v-40.25c0-.63.51-1.14 1.14-1.14h13.66c.63 0 1.14.51 1.14 1.14v39.43c0 11 3.2 15.09 11.79 15.09 7.56 0 12.25-2.65 12.25-15.82v-38.69c0-.63.51-1.14 1.14-1.14h13.67c.63 0 1.14.51 1.14 1.14v39.61c0 18.12-10.04 28.1-28.28 28.1Zm-25.36-66.58v39.11c0 16.23 9.01 25.18 25.36 25.18s26-8.93 26-25.82v-38.47h-11.39v37.55c0 12.69-4.34 18.11-14.53 18.11s-14.07-5.2-14.07-17.37v-38.29h-11.38ZM1287.15 1367.33v-65.56h22.83c7.43 0 13.48 1.56 17.97 4.77 4.59 3.21 6.88 8.07 6.88 14.76v.37c0 10-6.05 15.31-13.85 17.51l17.7 28.15h-14.49l-16.32-25.86h-7.15v25.86zm13.58-35.31h8.98c7.7 0 11.83-3.3 11.83-9.9v-.37c0-6.97-4.4-9.54-11.74-9.54h-9.08v19.81Z" class="st0"/><path d="M1338.69 1368.47h-14.49c-.39 0-.76-.2-.96-.53l-15.99-25.33h-5.38v24.71c0 .63-.51 1.14-1.14 1.14h-13.57c-.63 0-1.14-.51-1.14-1.14v-65.56c0-.63.51-1.14 1.14-1.14h22.83c7.74 0 14.01 1.68 18.64 4.98 4.88 3.41 7.35 8.69 7.35 15.69v.37c0 8.84-4.68 15.24-13.23 18.16l16.91 26.9a1.146 1.146 0 0 1-.97 1.75m-13.86-2.29h11.8l-16.6-26.4a1.147 1.147 0 0 1 .65-1.71c5.94-1.68 13.02-5.89 13.02-16.42v-.37c0-6.3-2.09-10.82-6.39-13.83-4.24-3.03-10.06-4.56-17.32-4.56h-21.69v63.28h11.29v-24.71c0-.63.51-1.14 1.14-1.14h7.15c.39 0 .76.2.96.53zm-15.12-33.02h-8.98c-.63 0-1.14-.51-1.14-1.14v-19.8c0-.63.51-1.14 1.14-1.14h9.08c8.55 0 12.88 3.59 12.88 10.68v.37c0 7.12-4.61 11.04-12.97 11.04Zm-7.84-2.28h7.84c7.19 0 10.69-2.87 10.69-8.76v-.37c0-5.81-3.27-8.4-10.6-8.4h-7.94v17.52ZM1348.86 1367.33v-65.56h13.66v65.56z" class="st0"/><path d="M1362.52 1368.47h-13.66c-.63 0-1.14-.51-1.14-1.14v-65.56c0-.63.51-1.14 1.14-1.14h13.66c.63 0 1.14.51 1.14 1.14v65.56c0 .63-.51 1.14-1.14 1.14m-12.52-2.29h11.38v-63.28H1350zM1380.68 1362.37c-4.22-3.94-6.51-9.17-6.97-15.5h13.02c.37 3.12 1.47 5.78 3.21 8.07 1.84 2.2 5.32 3.3 10.45 3.3 6.88 0 11.55-3.76 11.55-9.35 0-2.84-.91-4.86-2.75-6.14-1.83-1.28-5.23-2.29-10.27-3.12-16.14-2.2-23.38-7.24-23.38-19.62 0-11 9.35-19.16 23.38-19.16s23.11 6.6 24.3 19.35h-12.56c-1.1-6.33-4.77-9.26-11.74-9.26s-10.54 3.3-10.54 8.07c0 2.48.83 4.4 2.38 5.78 1.65 1.38 5.14 2.38 10.45 3.12 7.79 1.01 13.75 2.84 17.79 5.69 4.03 2.75 6.05 7.43 6.05 14.12 0 11.46-9.63 20.63-24.67 20.63-8.9 0-15.5-2.02-19.71-5.96Z" class="st0"/><path d="M1400.39 1369.48c-9.15 0-16.05-2.11-20.49-6.27-4.38-4.09-6.84-9.55-7.33-16.24-.02-.32.08-.63.3-.86.21-.23.52-.37.83-.37h13.02c.58 0 1.07.43 1.13 1.01.33 2.85 1.31 5.31 2.99 7.51 1.57 1.88 4.79 2.85 9.55 2.85 6.23 0 10.41-3.3 10.41-8.21 0-2.44-.74-4.14-2.26-5.2-1.64-1.15-4.93-2.13-9.79-2.93-14.6-1.99-24.34-6.28-24.34-20.75 0-11.96 10.08-20.31 24.53-20.31 15.17 0 24.2 7.24 25.44 20.38.03.32-.08.64-.29.87-.21.24-.52.37-.84.37h-12.57c-.56 0-1.03-.4-1.12-.94-1.01-5.83-4.18-8.32-10.61-8.32-5.98 0-9.4 2.53-9.4 6.93 0 2.13.65 3.74 2 4.92 1.41 1.18 4.74 2.14 9.85 2.84 8.2 1.07 14.18 2.99 18.29 5.89 4.33 2.95 6.53 8.02 6.53 15.05 0 12.62-10.85 21.77-25.81 21.77Zm-25.43-21.46c.64 5.54 2.82 10.09 6.5 13.52 4.01 3.75 10.38 5.66 18.93 5.66 13.85 0 23.52-8.02 23.52-19.49 0-6.32-1.82-10.63-5.55-13.18-3.81-2.69-9.47-4.48-17.29-5.5-5.71-.78-9.21-1.85-11.04-3.37-1.86-1.65-2.79-3.88-2.79-6.66 0-5.68 4.48-9.21 11.68-9.21s11.27 3.03 12.67 9.26h10.35c-1.55-11.17-9.48-17.07-23.02-17.07s-22.25 7.41-22.25 18.03c0 11.25 6.07 16.27 22.4 18.49 5.38.88 8.79 1.93 10.77 3.32 2.15 1.5 3.24 3.88 3.24 7.08 0 6.18-5.22 10.49-12.69 10.49-5.54 0-9.25-1.21-11.33-3.71a17.45 17.45 0 0 1-3.32-7.66zM1436.51 1367.33v-65.56h18.07l16.23 42.64 16.05-42.64h17.79v65.56h-13.57v-47.68l-18.8 47.68h-4.49l-18.98-47.68v47.68h-12.29Z" class="st0"/><path d="M1504.64 1368.47h-13.57c-.63 0-1.14-.51-1.14-1.14v-41.68l-16.6 42.1c-.17.44-.59.72-1.06.72h-4.49c-.47 0-.89-.29-1.06-.72l-16.78-42.16v41.73c0 .63-.51 1.14-1.14 1.14h-12.29c-.63 0-1.14-.51-1.14-1.14v-65.56c0-.63.51-1.14 1.14-1.14h18.07c.47 0 .9.29 1.07.74l15.16 39.82 14.99-39.82c.17-.45.59-.74 1.07-.74h17.79c.63 0 1.14.51 1.14 1.14v65.56c0 .63-.51 1.14-1.14 1.14Zm-12.43-2.29h11.29v-63.28h-15.86l-15.77 41.9a1.145 1.145 0 0 1-2.14 0l-15.94-41.9h-16.14v63.28h10v-46.54c0-.55.39-1.02.93-1.12.53-.13 1.07.19 1.27.7l18.7 46.97h2.94l18.51-46.96c.2-.51.73-.8 1.27-.7s.93.57.93 1.12v46.54ZM249.17 436.5v-46.68l-12.16 8.05v-10.52l13.64-9.62h10.77v58.76h-12.25Z" class="st0"/><path d="M261.42 437.64h-12.25c-.63 0-1.14-.51-1.14-1.14v-44.55l-10.39 6.88c-.35.24-.81.25-1.17.06-.37-.2-.6-.59-.6-1.01v-10.52c0-.37.18-.72.49-.93l13.65-9.62c.19-.14.42-.21.66-.21h10.77c.63 0 1.14.51 1.14 1.14v58.76c0 .63-.51 1.14-1.14 1.14Zm-11.11-2.28h9.97v-56.48h-9.26l-12.87 9.07v7.8l10.39-6.88c.34-.24.8-.25 1.17-.06.37.2.6.59.6 1.01zM272.86 420.89h11.42c.9 4.36 3.45 7.07 9.37 7.07 8.22 0 12.41-6.33 12.49-19.07v-.08c-2.63 4.36-7.31 7.31-14.22 7.31-11.34 0-19.64-7.23-19.64-19.07 0-6 1.97-10.85 6-14.55 4.03-3.78 9.53-5.67 16.35-5.67 15.78 0 23.51 10.68 23.51 27.61v2.88c0 19.15-8.71 30-24.08 30-12.41 0-19.8-6-21.2-16.44Zm32.37-23.42c0-7.23-4.44-11.75-10.76-11.75-6 0-10.28 4.52-10.28 11.09s4.03 11.01 10.36 11.01 10.68-4.36 10.68-10.36Z" class="st0"/><path d="M294.06 438.47c-12.9 0-20.83-6.19-22.34-17.43-.04-.33.06-.66.27-.9.22-.25.53-.39.86-.39h11.42c.54 0 1.01.38 1.12.91.9 4.32 3.36 6.16 8.25 6.16 6.8 0 10.49-4.75 11.22-14.51-3.16 3.22-7.63 4.96-12.95 4.96-12.43 0-20.78-8.12-20.78-20.21 0-6.32 2.14-11.5 6.37-15.38 4.22-3.96 9.98-5.97 17.13-5.97 15.66 0 24.64 10.48 24.64 28.75v2.87c0 19.79-9.19 31.14-25.22 31.14Zm-19.86-16.44c1.76 9.14 8.77 14.16 19.86 14.16 14.79 0 22.94-10.25 22.94-28.86v-2.87c0-17.07-7.94-26.47-22.36-26.47-6.55 0-11.79 1.8-15.57 5.36-3.8 3.49-5.64 7.97-5.64 13.71 0 10.72 7.43 17.93 18.5 17.93 5.99 0 10.57-2.34 13.24-6.76.26-.44.8-.64 1.28-.51.49.14.83.59.83 1.1-.09 13.49-4.68 20.29-13.64 20.29-5.6 0-8.96-2.31-10.27-7.07h-9.18Zm20.35-13.07c-6.88 0-11.5-4.88-11.5-12.15s4.69-12.24 11.41-12.24c7.12 0 11.91 5.18 11.91 12.89 0 6.66-4.97 11.5-11.82 11.5m-.08-22.1c-5.37 0-9.13 4.1-9.13 9.96s3.62 9.87 9.22 9.87 9.54-3.79 9.54-9.22c0-6.44-3.78-10.61-9.63-10.61M333.04 436.5l18.41-48.9h-26.63v-9.86h41.83v1.31l-21.2 57.44h-12.41Z" class="st0"/><path d="M345.45 437.64h-12.41a1.14 1.14 0 0 1-1.07-1.54l17.83-47.36h-24.98c-.63 0-1.14-.51-1.14-1.14v-9.86c0-.63.51-1.14 1.14-1.14h41.83c.63 0 1.14.51 1.14 1.14v1.32c0 .13-.02.27-.07.4l-21.2 57.44c-.16.45-.59.74-1.07.74m-10.77-2.28h9.97l20.85-56.48h-39.54v7.58h25.49a1.14 1.14 0 0 1 1.07 1.54l-17.83 47.36ZM372.09 408.65v-2.96c0-17.92 10.35-28.76 25.23-28.76s25.15 10.52 25.15 28.52v2.79c0 17.83-9.53 29.17-25.23 29.17s-25.15-11.01-25.15-28.76m38.13-.25v-2.88c0-12.08-4.36-19.15-12.9-19.15s-12.9 6.74-12.9 19.23v2.96c0 12.74 4.77 19.15 13.06 19.15s12.74-6.57 12.74-19.31" class="st0"/><path d="M397.24 438.55c-15.97 0-26.29-11.74-26.29-29.91v-2.95c0-18.17 10.35-29.91 26.37-29.91s26.28 11.64 26.28 29.66v2.79c0 18.7-10.1 30.32-26.37 30.32Zm.08-60.49c-14.63 0-24.09 10.84-24.09 27.62v2.95c0 17.04 9.2 27.62 24.01 27.62s24.09-10.74 24.09-28.03v-2.79c0-16.88-9.2-27.38-24-27.38Zm.16 50.79c-5.31 0-14.21-2.64-14.21-20.29v-2.96c0-13.14 4.99-20.37 14.05-20.37s14.04 7.21 14.04 20.29v2.87c0 13.57-4.67 20.45-13.88 20.45Zm-.16-41.33c-9.72 0-11.76 9.84-11.76 18.09v2.96c0 8.21 2.07 18.01 11.93 18.01 7.81 0 11.6-5.94 11.6-18.17v-2.87c0-8.21-2.04-18.01-11.76-18.01ZM273.15 1069.44c15.17-.14 15.16-22.88 0-23.01-15.4.32-15.42 22.69 0 23.01" class="st0"/><path d="M273.15 1070.58h-.02c-8.71-.18-12.67-6.68-12.67-12.65s3.97-12.46 12.67-12.65c8.24.07 12.54 6.41 12.54 12.64s-4.29 12.58-12.5 12.65Zm-.01-23.01c-7.14.15-10.41 5.48-10.41 10.37s3.26 10.2 10.42 10.37c7.03-.07 10.23-5.42 10.22-10.37 0-4.95-3.2-10.31-10.24-10.37Z" class="st0"/><path d="M300.69 1069.44c15.15-.14 15.13-22.88 0-23.01-15.4.32-15.42 22.69 0 23.01" class="st0"/><path d="M300.69 1070.58h-.02c-8.71-.18-12.67-6.68-12.67-12.65s3.97-12.46 12.67-12.65c8.23.07 12.52 6.42 12.52 12.64 0 6.23-4.28 12.58-12.49 12.65Zm-.01-23.01c-7.14.15-10.41 5.48-10.41 10.37s3.26 10.2 10.42 10.37c7.01-.08 10.21-5.42 10.2-10.37 0-4.95-3.2-10.3-10.22-10.37ZM328.52 1178.72c4.43 0 13.29-.12 17.72 0 23.8.66 41.04-9.35 61.35-24.05 19.31-12.77 24.55-14.62 39.74-14.12v-21.61c-6.14.12-13.4-.13-18.82-1.39-4.01-.88-9.77-2.79-17.09-5.58-11.01-3.45-36.66-13.58-45.48-12.9-16.91 0-27.36 11.86-27.89 32.06h18.82c2.39-11.57 13.52-7.99 23.35-4.7 8.51 2.81 21.7 7.97 29.99 9.41-3.33 1.22-6.82 2.92-10.47 4.53-2.99 1.32-8.93 4.08-11.84 5.58-15.42 7.91-35.53 8.74-54.42 8.53-9.93-.11-13.98-4.17-13.98-15.85v-58.74h-22.13v15.87c-23.49 10.77-54.96 18.5-54.73 47.93.15 19.34 11.33 30.84 30.33 30.84 13.76 0 22.31-5.58 26.48-17.42 2.63 15.17 10.93 21.61 29.05 21.61Zm-31.14-45.15c0 11.86-7.84 16.73-21.79 16.73-10.98 0-15.51-4.01-15.51-10.29 0-6.78 4.5-11.4 15.69-16.37 5.38-2.39 21.61-9.41 21.61-9.41z" class="st0"/><path d="M348.37 1179.89c-.72 0-1.44-.01-2.17-.03-3.06-.08-8.4-.05-12.68-.02-1.91 0-3.66.02-5 .02-16.94 0-25.93-5.71-29.39-18.93-4.73 9.91-13.32 14.73-26.14 14.73-19.55 0-31.32-11.95-31.47-31.97-.2-25.65 23.35-35.47 44.12-44.13 3.7-1.54 7.21-3 10.61-4.55v-15.13c0-.63.51-1.14 1.14-1.14h22.13c.63 0 1.14.51 1.14 1.14v58.74c0 10.76 3.36 14.61 12.85 14.71 19.09.22 38.81-.67 53.88-8.4 2.99-1.53 9.04-4.34 11.9-5.61 1.05-.46 2.08-.93 3.09-1.39 1.35-.61 2.67-1.21 3.96-1.76-5.77-1.42-12.8-3.9-19.14-6.13-2.64-.93-5.13-1.81-7.32-2.53-6.17-2.06-13.84-4.62-18.19-2.14-1.88 1.08-3.08 3.03-3.69 5.98-.11.53-.58.91-1.12.91h-18.82c-.31 0-.6-.12-.82-.34s-.33-.52-.33-.83c.53-20.77 11.39-33.17 29.03-33.17 6.88-.53 22.89 5.06 35.79 9.55 3.9 1.36 7.39 2.58 10.04 3.4 7.64 2.9 13.18 4.71 17 5.55 5.66 1.31 13.21 1.47 18.55 1.36.24.06.6.11.82.33.22.21.34.51.34.82v21.61c0 .31-.12.61-.35.82s-.66.34-.83.32c-14.89-.48-20.03 1.34-39.08 13.93-17.67 12.79-35.59 24.27-59.84 24.27Zm-7.72-2.37c2.15 0 4.14.01 5.62.05 22.42.68 38.62-7.89 60.65-23.84 19.12-12.64 24.65-14.72 39.27-14.38v-19.27c-5.37.04-12.46-.16-17.94-1.43-3.92-.86-9.56-2.7-17.24-5.62-2.6-.81-6.11-2.04-10.04-3.4-12.02-4.19-28.48-9.94-34.95-9.43-16.01 0-25.93 11.11-26.8 29.78h16.73c.82-3.09 2.35-5.31 4.58-6.59 5.23-3 13.1-.37 20.04 1.95 2.2.73 4.7 1.61 7.36 2.54 7.69 2.7 16.4 5.78 22.47 6.83.51.09.89.51.94 1.02.04.51-.26.99-.74 1.17-2.34.86-4.74 1.95-7.29 3.11-1.02.46-2.06.93-3.11 1.39-2.83 1.26-8.83 4.04-11.78 5.55-15.51 7.96-35.58 8.85-54.95 8.65-10.87-.12-15.11-4.88-15.11-16.99v-57.6h-19.85v14.73c0 .45-.26.85-.66 1.04-3.65 1.67-7.56 3.3-11.35 4.88-21.09 8.79-42.91 17.88-42.72 42 .15 18.88 10.79 29.71 29.19 29.71 13.33 0 21.4-5.29 25.41-16.65.17-.49.66-.82 1.17-.76.52.04.94.43 1.03.94 2.54 14.68 10.63 20.66 27.93 20.66 1.34 0 3.08-.01 4.99-.02 2.25-.02 4.78-.03 7.13-.03Zm-65.06-26.07c-13.76 0-16.65-6.22-16.65-11.43 0-7.21 4.74-12.25 16.37-17.42 5.39-2.39 21.61-9.42 21.61-9.42.36-.15.77-.12 1.08.09.32.21.51.57.51.95v19.34c0 12.03-7.5 17.87-22.93 17.87Zm20.65-35.48c-4.22 1.83-15.65 6.78-20 8.72-10.8 4.8-15.01 9.1-15.01 15.33s4.84 9.15 14.37 9.15c14.09 0 20.65-4.96 20.65-15.59v-17.6ZM611.57 1192.66c-5.74 0-10.27 4.53-10.27 10.29s4.53 10.27 10.27 10.27 10.29-4.53 10.29-10.27-4.53-10.29-10.29-10.29" class="st0"/><path d="M611.57 1214.36c-6.4 0-11.41-5.01-11.41-11.41s5.01-11.43 11.41-11.43 11.43 5.02 11.43 11.43-5.02 11.41-11.43 11.41m0-20.56c-5.12 0-9.13 4.02-9.13 9.15s4.01 9.13 9.13 9.13 9.15-4.01 9.15-9.13-4.02-9.15-9.15-9.15M636.51 1192.66c-5.76 0-10.11 4.53-10.11 10.29s4.35 10.27 10.11 10.27 10.27-4.53 10.27-10.27-4.53-10.29-10.27-10.29" class="st0"/><path d="M636.51 1214.36c-6.31 0-11.25-5.01-11.25-11.41s4.94-11.43 11.25-11.43 11.41 5.02 11.41 11.43-5.01 11.41-11.41 11.41m0-20.56c-5.12 0-8.97 3.93-8.97 9.15s3.85 9.13 8.97 9.13 9.13-4.01 9.13-9.13-4.01-9.15-9.13-9.15M649.07 1178.72c-16.21 0-25.98-6.8-28.6-19.52-2.25 12.72-11.15 19.52-25.78 19.52h-102.3c-22.47 0-31.72-12.02-31.72-37.65v-94.81h22.31v90.64c0 13.24 3.83 17.6 16.39 17.6h100.19c12.38 0 16.74-5.4 16.74-18.64v-19h20.91v19c0 15.17 4.19 18.64 16.73 18.64v.03l.03-.03c11.33 0 16.91-4.88 16.91-16.55l-.18-8.89h21.09c-.37 12.07-.49 27.24 12.72 26.84 11.59.15 11.96-14.93 11.51-26.84h20.91l.18 8.89c-1 24.55 24.33 23.42 23.17 0v-14.99h20.92c.44 14.32-3.89 31.84 16.6 31.54 6.44-.09 10.86-1.39 13.13-4 2.27-2.79 3.31-8.37 3.31-16.73v-87.51h22.13v89.6c.16 34.17-15.63 43.81-43.44 42.87-14.8-.5-24.62-7.14-27.41-19-1.43 27.34-39.53 27.41-44.28 2.61-2.78 26.55-42.84 22.72-46-1.21-2.27 11.68-11.35 17.6-26.16 17.6Z" class="st0"/><path d="M699.99 1181.84c-10.01 0-21.2-5.6-24.87-16.2-3.6 9.33-12.51 14.22-26.06 14.22-14.84 0-24.61-5.59-28.53-16.23-3.47 10.64-12.32 16.23-25.86 16.23h-102.3c-22.72 0-32.86-11.97-32.86-38.8v-94.81c0-.63.51-1.14 1.14-1.14h22.31c.63 0 1.14.51 1.14 1.14v90.64c0 12.77 3.42 16.46 15.25 16.46h100.19c11.52 0 15.6-4.58 15.6-17.5v-19c0-.63.51-1.14 1.14-1.14h20.91c.63 0 1.14.51 1.14 1.14v19c0 14.86 4.09 17.5 15.59 17.5h.04c11.05 0 15.77-4.61 15.77-15.41l-.18-8.86c0-.31.11-.6.33-.82s.51-.34.82-.34h21.09c.31 0 .61.12.82.35.21.22.33.52.32.83-.24 7.76-.56 18.39 4.18 23.12 1.8 1.8 4.22 2.62 7.36 2.54 2.71.06 4.64-.74 6.22-2.35 4.3-4.42 4.54-14.26 4.19-23.31 0-.31.1-.61.32-.84.21-.22.51-.35.82-.35h20.9c.62 0 1.13.49 1.14 1.12l.18 8.89c-.31 7.54 1.91 13.24 6.09 15.7 2.68 1.59 5.91 1.54 8.62-.1 4.23-2.55 6.54-8.36 6.19-15.53v-15.04c0-.63.51-1.14 1.14-1.14h20.92c.61 0 1.12.49 1.14 1.11.07 2.34.02 4.75-.04 7.16-.18 7.97-.34 15.5 3.84 19.72 2.38 2.39 6.02 3.56 11.13 3.56h.5c6.15-.09 10.29-1.3 12.29-3.61 2-2.46 3.03-7.85 3.03-15.98v-87.51c0-.63.51-1.14 1.14-1.14h22.13c.63 0 1.14.51 1.14 1.14v89.59c.08 16.22-3.43 27.54-10.7 34.61-7.16 6.95-17.92 9.9-33.92 9.41-13.37-.45-22.74-5.78-26.91-15.16-2.66 11.57-12.25 16.41-20.41 16.97-9.28.7-19.95-4.18-24.12-14.56-3.21 10.61-12.95 14.62-21.08 14.73H700Zm-24.76-21.86h.04c.56.02 1.02.44 1.1.99 1.6 12.13 13.3 18.59 23.63 18.59h.33c8.69-.12 18.45-4.74 19.77-17.35.06-.56.52-.99 1.09-1.02.56.04 1.07.37 1.17.93 2.45 12.79 13.62 17.88 23.06 17.29 8.3-.57 18.25-6.08 18.96-19.74.03-.57.47-1.03 1.04-1.08.63-.07 1.09.33 1.21.87 2.63 11.2 11.99 17.64 26.34 18.12 15.29.52 25.57-2.27 32.25-8.76 6.81-6.62 10.08-17.4 10.01-32.97v-88.46h-19.85v86.37c0 8.79-1.17 14.5-3.57 17.45-2.5 2.88-7.07 4.31-14 4.42h-.53c-5.75 0-9.93-1.39-12.75-4.23-4.87-4.91-4.68-13.28-4.51-21.38.04-1.99.09-3.99.06-5.94h-18.67v13.85c.4 8.09-2.25 14.5-7.29 17.54-3.45 2.09-7.55 2.13-10.96.1-4.92-2.91-7.54-9.36-7.21-17.69l-.16-7.7h-18.61c.29 9.2-.18 18.98-4.88 23.81-1.97 2.02-4.54 3.04-7.64 3.04h-.7c-3.48 0-6.35-1.08-8.48-3.22-4.83-4.83-5.14-13.87-4.88-23.63h-18.75l.16 7.72c0 12.05-5.7 17.68-17.92 17.72a.9.9 0 0 1-.32 0c-13.57-.04-17.71-4.68-17.71-19.78v-17.86h-18.63v17.86c0 14.05-5.18 19.78-17.88 19.78H499.36c-13.11 0-17.53-4.73-17.53-18.74v-89.5H461.8v93.67c0 25.59 9.14 36.51 30.57 36.51h102.3c13.98 0 22.51-6.43 24.66-18.58.09-.54.56-.93 1.11-.94h.02c.54 0 1.01.38 1.12.91 2.51 12.18 12.01 18.61 27.49 18.61 14.47 0 22.89-5.61 25.04-16.68.1-.53.57-.92 1.12-.92ZM858.36 1046.25h22.15v132.47h-22.15z" class="st0"/><path d="M880.51 1179.86h-22.14c-.63 0-1.14-.51-1.14-1.14v-132.47c0-.63.51-1.14 1.14-1.14h22.14c.63 0 1.14.51 1.14 1.14v132.47c0 .63-.51 1.14-1.14 1.14m-21.01-2.29h19.86v-130.19H859.5zM933.85 1102.9c-21.43 0-37.46 20.38-37.46 42.01-.91 33.53 32.49 41.6 58.38 32.42-2.59 24.82-35.29 22.23-55.77 17.07v23.01c20.73 5.12 49.93 5.11 61.35-12.2 19.77-27.2 15.85-101.17-26.5-102.32Zm-1.04 53.51c-12.54 0-19.86-4.71-19.86-13.6 0-7.84 6.1-16.03 17.07-16.03 13.42 0 22.67 9.25 24.93 27.36-6.8 1.57-13.08 2.27-22.15 2.27Z" class="st0"/><path d="M923.09 1221.57c-8.35 0-16.83-1.19-24.36-3.05-.51-.13-.87-.58-.87-1.11v-23.01c0-.35.16-.68.44-.9.28-.21.65-.28.98-.2 7.54 1.9 33.17 7.38 46.41-1.88 4.18-2.92 6.76-7.09 7.7-12.42-16.31 5.25-33.77 3.52-44.93-4.59-8.99-6.53-13.56-16.75-13.21-29.53 0-23.36 17.68-43.12 38.6-43.12h.03c13.54.37 24.37 8.01 31.31 22.11 11.77 23.9 9.9 63-3.93 82.02-7.63 11.57-22.68 15.68-38.19 15.68Zm-22.95-5.05c22.26 5.29 48.98 3.65 59.26-11.93 13.44-18.48 15.21-56.46 3.76-79.71-4.56-9.26-13.35-20.4-29.31-20.84-21.72 0-36.31 21.14-36.31 40.87-.33 12.03 3.92 21.58 12.27 27.65 10.95 7.96 28.46 9.41 44.59 3.69.37-.13.78-.07 1.09.18.31.24.47.62.43 1.02-.72 6.88-3.72 12.2-8.92 15.84-13.04 9.11-36.12 5.14-46.85 2.57v20.66Zm32.67-58.97c-13.35 0-21.01-5.37-21.01-14.74 0-8.32 6.39-17.17 18.22-17.17 14.52 0 23.77 10.08 26.06 28.36.07.58-.31 1.12-.88 1.25-7.09 1.64-13.58 2.3-22.4 2.3Zm-2.79-29.64c-10.35 0-15.94 7.67-15.94 14.89 0 10.84 11.73 12.46 18.73 12.46 8.21 0 14.34-.59 20.87-2.01-2.34-16.35-10.71-25.34-23.66-25.34M1223.78 1082.51c15.01-.08 14.87-23.04 0-23.19-15.33.4-15.47 22.87 0 23.19" class="st0"/><path d="M1223.78 1083.65h-.03c-8.68-.18-12.65-6.67-12.67-12.62-.02-6.22 4.33-12.63 12.66-12.84 8.16.08 12.4 6.52 12.38 12.84-.01 6.05-3.89 12.58-12.34 12.63Zm-.02-23.18c-7.15.19-10.41 5.6-10.4 10.55.01 4.88 3.28 10.2 10.42 10.35 6.89-.04 10.04-5.39 10.06-10.35.01-5.03-3.14-10.48-10.08-10.55" class="st0"/><path d="M1267.56 1154.48h-15.71c20.81-22.43 2.9-62.12-27.37-61.51-29.48-.85-49.82 37.59-29.81 61.51h-114.49c-11.33 0-16.91-4.7-18.84-18.46l-2.95-19.18h-21.62c6.56 33.59 15.21 89.49-32.94 78.26v24.22c31.29 5.87 51.71-7.88 53.34-49.15 3.65 5.58 9.75 8.55 18.12 8.55h100.22c15.66.48 33.73-.73 47.05-5.76 11.13 4.26 26.36 5.95 40.12 5.76 14.81-.21 23.91-5.92 26.17-17.6 3.17 23.93 43.23 27.75 46 1.21 4.75 24.81 42.83 24.73 44.28-2.61 2.79 11.86 12.59 19 27.41 19s23.22-6.8 25.49-19.86c2.61 13.24 12.4 19.3 29.31 19.86 27.83.93 43.57-8.7 43.41-42.87v-89.6h-22.13v87.51c0 8.37-1.06 13.94-3.31 16.73-2.27 2.61-6.64 4-13.08 4l-.03.03v-.03c-6.46 0-10.81-1.21-13.08-3.47-2.27-2.45-3.31-7.5-3.31-15.17v-89.6h-22.13v89.6c0 13.24-4.35 18.64-16.21 18.64l-.1.09v-.09c-20.5.6-16.11-17.24-16.55-31.54h-20.92v14.99c1.16 23.41-24.16 24.55-23.17 0l-.18-8.89h-20.91c.45 11.92.07 27-11.51 26.84-13.21.4-13.09-14.79-12.72-26.84h-21.09l.18 8.89c0 11.68-5.6 16.55-16.94 16.55Zm-29.42-9.02c-5.74 5.28-14.41 5.98-21.5 2.75-8.19-3.74-12.72-9.07-12.72-15.49 0-8.2 7.49-15.53 19.34-15.53 19.82.24 25.87 18.16 14.88 28.27" class="st0"/><path d="M1016.75 1221.75c-4.1 0-8.48-.43-13.13-1.31-.54-.1-.93-.57-.93-1.12v-24.22c0-.35.16-.68.43-.9.27-.21.62-.31.97-.21 12.33 2.87 21.64 1.38 27.66-4.42 13.39-12.91 9.48-43.9 3.9-72.51-.07-.33.02-.68.24-.94s.54-.41.88-.41h21.62c.56 0 1.04.41 1.13.97l2.95 19.18c1.78 12.76 6.58 17.5 17.71 17.5h112.14c-7.98-10.96-9.02-25.63-2.59-38.89 6.71-13.84 19.91-22.64 33.83-22.64h1.65c14.14 0 26.81 8.67 33.13 22.77 6.07 13.54 4.5 28.15-4.01 38.75h13.22c11.07 0 15.8-4.61 15.8-15.41l-.18-8.86c0-.31.11-.6.33-.82s.51-.34.82-.34h21.09c.31 0 .61.12.82.35.21.22.33.52.32.83-.22 7.32-.56 18.39 4.18 23.13 1.8 1.8 4.24 2.59 7.36 2.54 2.71.04 4.63-.73 6.21-2.35 4.3-4.41 4.54-14.26 4.19-23.31 0-.31.1-.61.32-.84.21-.22.51-.35.82-.35h20.91c.62 0 1.13.5 1.14 1.12l.18 8.89c-.3 7.54 1.92 13.24 6.1 15.7 2.68 1.59 5.9 1.54 8.61-.1 4.22-2.55 6.54-8.36 6.18-15.53v-15.04c0-.63.51-1.14 1.14-1.14h20.92c.61 0 1.12.49 1.14 1.11.07 2.36.02 4.84-.04 7.23-.17 7.69-.36 15.64 3.86 19.83 2.45 2.43 6.27 3.53 11.56 3.38h.13c10.98 0 15.07-4.74 15.07-17.5v-89.59c0-.63.51-1.14 1.14-1.14h22.13c.63 0 1.14.51 1.14 1.14v89.59c0 7.4 1.01 12.24 3.01 14.39 2.02 2.02 6.27 3.11 12.24 3.11h.03c5.95 0 10.17-1.25 12.22-3.61 2-2.48 3.03-7.87 3.03-15.98v-87.51c0-.63.51-1.14 1.14-1.14h22.13c.63 0 1.14.51 1.14 1.14v89.59c.08 16.23-3.43 27.56-10.7 34.62-7.15 6.94-17.87 9.93-33.89 9.39-15.78-.53-25.37-5.93-29.19-16.46-3.45 10.79-12.2 16.46-25.56 16.46s-22.71-5.45-26.96-15.14c-2.68 11.56-12.26 16.39-20.42 16.95-9.36.63-19.94-4.18-24.11-14.56-3.21 10.6-12.95 14.62-21.08 14.73h-.37c-10 0-21.19-5.6-24.87-16.19-3.56 9.24-12.29 14.02-26.06 14.21-15.46.21-29.9-1.86-40.14-5.68-15.48 5.71-36.1 6-47.08 5.68h-100.18c-7.41 0-13.16-2.21-17.14-6.56-1.24 19.2-6.83 32.88-16.64 40.7-6.48 5.16-14.78 7.76-24.77 7.76Zm-11.78-3.38c14.89 2.63 26.71.56 35.12-6.16 9.78-7.79 15.14-21.95 15.94-42.08.02-.49.36-.92.84-1.06.46-.12.98.06 1.26.48 3.49 5.33 9.26 8.03 17.17 8.03h100.21c10.94.32 31.48.04 46.65-5.69.26-.1.55-.09.81 0 10 3.82 24.54 5.87 39.69 5.68 14.53-.2 22.96-5.82 25.08-16.68.1-.55.59-1 1.15-.92.56.02 1.02.44 1.1.99 1.6 12.13 13.3 18.59 23.63 18.59h.34c8.69-.12 18.44-4.74 19.76-17.35.06-.56.52-.99 1.09-1.02.52.04 1.06.37 1.17.93 2.46 12.79 13.69 17.91 23.05 17.28 8.3-.57 18.25-6.07 18.97-19.74.03-.57.47-1.02 1.04-1.07.62-.07 1.09.33 1.21.87 2.71 11.52 12.3 18.12 26.31 18.12s22.19-6.36 24.36-18.92c.09-.54.56-.94 1.11-.94h.01c.54 0 1.01.38 1.12.92 2.44 12.36 11.41 18.38 28.23 18.94 15.28.54 25.55-2.26 32.22-8.75 6.8-6.61 10.08-17.4 10.01-32.98v-88.46h-19.85v86.37c0 8.77-1.17 14.48-3.57 17.45-2.53 2.92-7.18 4.4-13.83 4.42-.11.02-.21.02-.33 0-6.6-.02-11.21-1.3-13.72-3.81-2.5-2.69-3.65-7.76-3.65-15.97v-88.45h-19.85v88.45c0 13.97-4.97 19.72-17.14 19.78-.18.04-.37.05-.54 0-5.9.18-10.09-1.2-12.96-4.05-4.91-4.88-4.72-13.33-4.53-21.5.05-1.99.09-4.04.07-6h-18.67v13.85c.4 8.09-2.25 14.5-7.28 17.54-3.45 2.09-7.54 2.13-10.96.11-4.92-2.91-7.55-9.36-7.21-17.69l-.16-7.7h-18.61c.29 9.2-.18 18.98-4.88 23.81-1.97 2.01-4.54 3.03-7.63 3.03h-.71c-3.48 0-6.34-1.08-8.48-3.22-4.83-4.83-5.14-13.87-4.88-23.64h-18.75l.16 7.72c0 12.09-5.74 17.72-18.08 17.72h-15.71c-.45 0-.86-.27-1.05-.69-.18-.41-.1-.9.21-1.23 9.3-10.02 11.32-24.65 5.25-38.18-5.94-13.27-17.82-21.43-31.11-21.43h-1.54c-13.1 0-25.49 8.3-31.83 21.36-6.4 13.2-4.96 27.88 3.76 38.3.29.34.35.81.16 1.21s-.59.66-1.03.66h-114.48c-12.25 0-18.03-5.63-19.97-19.45l-2.8-18.19h-19.26c5.56 28.83 9.14 59.77-4.82 73.23-6.37 6.15-15.9 7.95-28.36 5.31v21.84Zm220.54-67.09c-3.14 0-6.34-.67-9.34-2.04-8.76-4-13.39-9.71-13.39-16.53 0-9.5 8.81-16.66 20.48-16.66 9.95.12 17.58 4.6 20.41 11.99 2.43 6.34.61 13.33-4.75 18.26-3.56 3.28-8.39 4.99-13.4 4.99Zm-2.27-32.95c-11.81 0-18.19 7.41-18.19 14.38 0 7.4 6.56 11.95 12.05 14.46 7.01 3.2 15.13 2.16 20.26-2.54 4.65-4.28 6.25-10.33 4.16-15.77-2.48-6.48-9.32-10.42-18.29-10.53Zm14.9 27.13h.03zM1318.772 500.517l71.58 71.58-71.58 71.58-71.58-71.58z" class="st0"/><path d="M1318.77 648.24c-1.21 0-2.37-.48-3.23-1.34l-71.58-71.58a4.563 4.563 0 0 1 0-6.45l71.58-71.58a4.563 4.563 0 0 1 6.45 0l71.58 71.58a4.563 4.563 0 0 1 0 6.45l-71.58 71.58c-.86.86-2.01 1.34-3.23 1.34Zm-65.12-76.14 65.12 65.13 65.12-65.13-65.12-65.12zM1029.706 775.556l71.58 71.58-71.58 71.58-71.58-71.58z" class="st0"/><path d="M1029.7 923.28c-1.21 0-2.37-.48-3.23-1.34l-71.58-71.58a4.563 4.563 0 0 1 0-6.45l71.58-71.58a4.563 4.563 0 0 1 6.45 0l71.58 71.58c.86.86 1.34 2.01 1.34 3.23s-.48 2.37-1.34 3.23l-71.58 71.58c-.86.86-2.01 1.34-3.23 1.34Zm-65.12-76.15 65.12 65.13 65.13-65.13-65.13-65.12z" class="st0"/><path d="m926.13 833.01 102.14-173.69c5.8-9.47 12.8-17.25 20.53-23.64 20.52-16.95 51.65-1.09 51.74 25.53.06 17.08.16 32.05.31 42.62 0 0-.06 29.76 7 70.52 27.61 159.33 238.58 198.13 320.58 58.76l65.8-111.83a76.04 76.04 0 0 0 10.5-38.55V500.6h-48.52v140.53c0 25.72-26.27 57.48-61.61 84.56-54.01 41.38-129.82 41.38-183.83 0-35.35-27.09-61.61-58.84-61.61-84.56v-2.2c0-17.77 14.4-32.17 32.17-32.17h23.45V500.52H788.46c-51.55 0-67.69 49.31-67.69 72.39v117h48.3v-40.79c0-13.45 18.27-42.92 63.88-42.92s169.67.11 169.67.11-3.16 6.76-10.2 18.94c-6.07 10.97-30.84 51.66-46.95 78-27.73 45.35-78.95 71.85-131.78 65.93-52.21-5.84-105.89-35.6-142.53-77.94-15-17.34-24.31-34.79-24.31-50.11V500.6l-233.12.26.15 105.69 148.84-.2c19.75-.03 35.78 16.13 35.48 35.88v.28c-.25 15.02-9.64 31.86-24.22 48.72-67.46 78-190.96 78-258.42 0-13.45-15.58-22.68-31.27-24.25-45.39h-48.6c-.11 23.31 0 44.27.22 57.94 0 .91.05 30.63 7.1 71.02 27.76 159.06 238.62 197.44 320.5 58.28l12.18-20.7c7.98-13.56 28.03-12.35 34.13 2.15 14.3 34.02 46.02 79.82 115.52 98.47 121.01 27.53 178.84-54.56 193.79-79.99Z" class="st0"/><path d="M1281.05 923.37c-11.13 0-22.44-1.02-33.87-3.1-75.58-13.77-130.69-69.38-143.82-145.15-7.05-40.68-7.07-70.08-7.07-71.31-.15-10.51-.25-25.49-.31-42.59-.04-10.93-6.3-20.64-16.33-25.35-9.56-4.47-20-3.24-27.95 3.32a90.6 90.6 0 0 0-19.55 22.5L930.05 835.3c-15.49 26.35-75.59 110.1-198.74 82.13-71.01-19.06-103.73-65.52-118.71-101.15-2.16-5.14-6.78-8.43-12.36-8.81-5.66-.4-10.75 2.31-13.62 7.2l-12.18 20.7c-38.86 66.04-109.81 98.55-185.22 84.88-75.46-13.69-130.53-69.14-143.71-144.69-7.09-40.64-7.17-70.55-7.17-71.8-.24-14.8-.33-36.5-.22-57.96a4.56 4.56 0 0 1 4.56-4.54h48.6c2.33 0 4.28 1.75 4.54 4.06 1.35 12.24 9.15 26.68 23.16 42.91 31.29 36.17 77.13 56.92 125.76 56.92s94.47-20.75 125.75-56.92c15.12-17.48 22.9-32.89 23.11-45.81.13-8.56-3.02-16.38-8.86-22.3-5.86-5.94-13.67-9.21-22-9.21h-.04l-148.85.2c-2.52 0-4.56-2.04-4.56-4.56l-.14-105.69c0-1.21.48-2.37 1.33-3.23.86-.86 2.01-1.34 3.23-1.34l233.12-.26c1.21 0 2.37.48 3.23 1.34s1.34 2.01 1.34 3.23v140.53c0 13.29 8.02 29.59 23.2 47.13 36.45 42.13 88.64 70.69 139.59 76.39 50.25 5.63 100.25-19.41 127.38-63.77 14.85-24.28 40.67-66.68 46.85-77.83 2.9-5.02 5.13-9.11 6.76-12.17-27.42-.02-123.34-.11-162.23-.11-42.25 0-59.31 27.07-59.31 38.36v40.79c0 2.52-2.04 4.56-4.56 4.56h-48.3c-2.52 0-4.56-2.04-4.56-4.56v-117c0-25.11 17.66-76.96 72.25-76.96h416.33c2.52 0 4.56 2.04 4.56 4.56v106.24c0 2.52-2.04 4.56-4.56 4.56h-23.45c-15.22 0-27.6 12.38-27.6 27.61v2.2c0 21.98 22.37 52.24 59.83 80.94 52.49 40.21 125.79 40.21 178.28 0 37.46-28.7 59.83-58.96 59.83-80.94V500.6c0-2.52 2.04-4.56 4.56-4.56h48.52c2.52 0 4.56 2.04 4.56 4.56v182.13c0 14.36-3.85 28.49-11.13 40.86l-65.8 111.83c-32.98 56.05-89.07 87.95-151.33 87.95Zm-212.92-299.23c5.18 0 10.43 1.14 15.4 3.48 13.26 6.22 21.53 19.08 21.58 33.57.06 17.06.16 32.01.31 42.57 0 .37.03 29.96 6.93 69.8 12.46 71.89 64.75 124.67 136.46 137.73 71.51 13.02 138.81-17.83 175.69-80.5l65.8-111.83a71.46 71.46 0 0 0 9.87-36.24V505.15h-39.4v135.97c0 25.17-23.11 57.31-63.4 88.19-55.76 42.72-133.63 42.72-189.38 0-40.29-30.87-63.4-63.01-63.4-88.19v-2.2c0-20.25 16.47-36.73 36.73-36.73h18.89v-97.11H788.45c-47.7 0-63.12 45.7-63.12 67.83v112.43h39.18v-36.23c0-16.04 20.67-47.49 68.44-47.49s169.67.12 169.67.12c1.56 0 3.01.8 3.85 2.12.84 1.31.94 2.97.29 4.38-.13.28-3.32 7.07-10.38 19.29-6.22 11.24-32.12 53.76-47.01 78.1-28.97 47.38-82.44 74.07-136.18 68.09-53.18-5.96-107.56-35.67-145.47-79.5-16.64-19.22-25.43-37.58-25.43-53.1V505.16l-223.99.25.13 96.56 144.28-.2h.05c10.79 0 20.91 4.23 28.5 11.93 7.58 7.68 11.65 17.83 11.49 28.58-.25 15.4-8.78 32.77-25.33 51.92-33.02 38.18-81.37 60.08-132.66 60.08s-99.64-21.89-132.67-60.08c-13.8-15.98-22.09-30.7-24.7-43.81h-40.15c-.07 19.88.02 39.53.24 53.3 0 1.3.08 30.44 7.04 70.31 12.51 71.68 64.75 124.29 136.35 137.28 71.54 12.97 138.86-17.87 175.72-80.53l12.18-20.7c4.59-7.81 13.11-12.23 22.1-11.68 8.96.6 16.69 6.11 20.16 14.38 14.19 33.75 45.22 77.78 112.49 95.83 116.98 26.61 173.97-52.9 188.68-77.9L1024.34 657a99.4 99.4 0 0 1 21.56-24.84c6.41-5.3 14.24-8.02 22.23-8.02M460.66 395.17h1044.09v23.92H460.66z" class="st0"/><path d="M1504.75 420.23H460.65c-.63 0-1.14-.51-1.14-1.14v-23.92c0-.63.51-1.14 1.14-1.14h1044.09c.63 0 1.14.51 1.14 1.14v23.92c0 .63-.51 1.14-1.14 1.14ZM461.8 417.94h1041.81V396.3H461.8z" class="st0"/></svg>